<svg width="130" height="40" viewBox="0 0 130 40" fill="none" xmlns="http://www.w3.org/2000/svg">
<g clip-path="url(#clip0)">
<path d="M42.6065 30.5115H45.298V20.4114L49.4441 30.5115H51.6146L55.7389 20.4114V30.5115H58.4308V15.2742H55.1312L50.5294 26.528L45.9276 15.2742H42.6065V30.5115Z" fill="#111111"/>
<path d="M65.7953 30.6855C69.1164 30.6855 71.5041 28.291 71.5041 25.026C71.5041 21.7609 69.1164 19.3665 65.7953 19.3665C62.4526 19.3665 60.0646 21.7609 60.0646 25.026C60.0646 28.291 62.4526 30.6855 65.7953 30.6855ZM65.7953 28.3783C63.972 28.3783 62.7565 27.0068 62.7565 25.026C62.7565 23.0452 63.972 21.6738 65.7953 21.6738C67.597 21.6738 68.8125 23.0452 68.8125 25.026C68.8125 27.0068 67.597 28.3783 65.7953 28.3783Z" fill="#111111"/>
<path d="M78.0164 30.6855C81.3375 30.6855 83.7252 28.291 83.7252 25.026C83.7252 21.7609 81.3375 19.3665 78.0164 19.3665C74.6734 19.3665 72.2857 21.7609 72.2857 25.026C72.2857 28.291 74.6734 30.6855 78.0164 30.6855ZM78.0164 28.3783C76.1928 28.3783 74.9773 27.0068 74.9773 25.026C74.9773 23.0452 76.1928 21.6738 78.0164 21.6738C79.8178 21.6738 81.0336 23.0452 81.0336 25.026C81.0336 27.0068 79.8178 28.3783 78.0164 28.3783Z" fill="#111111"/>
<path d="M85.0928 30.5115H87.7628V24.5254C87.7628 22.9146 88.8047 21.7391 90.3023 21.7391C91.6699 21.7391 92.5815 22.784 92.5815 24.286V30.5115H95.2516V23.72C95.2516 21.1514 93.6452 19.3665 91.1706 19.3665C89.6079 19.3665 88.3706 20.0413 87.7628 21.2385V19.5406H85.0928V30.5115Z" fill="#111111"/>
<path d="M97.4684 30.5115H100.355V24.7213H103.568C106.737 24.7213 108.625 22.7622 108.625 19.9977C108.625 17.2333 106.737 15.2742 103.568 15.2742H97.4684V30.5115ZM100.355 22.3051V17.6904H103.438C105.131 17.6904 105.825 18.7788 105.825 19.9977C105.825 21.2167 105.131 22.3051 103.438 22.3051H100.355Z" fill="#111111"/>
<path d="M113.751 19.3665C110.908 19.3665 109.063 21.0643 108.933 23.2411H111.32C111.364 22.2615 112.21 21.3691 113.621 21.3691C115.032 21.3691 115.857 22.1309 115.857 23.1975C115.857 23.6329 115.596 23.9376 115.054 23.9376H113.035C110.582 23.9376 108.933 25.2654 108.933 27.3986C108.933 29.2923 110.409 30.6855 112.579 30.6855C114.142 30.6855 115.401 29.9671 115.857 28.8789V30.5114H118.483V23.4587C118.483 20.9773 116.53 19.3665 113.751 19.3665ZM113.209 28.7047C112.21 28.7047 111.516 28.1387 111.516 27.2898C111.516 26.3321 112.276 25.7008 113.404 25.7008H115.857V25.8749C115.857 27.5292 114.88 28.7047 113.209 28.7047Z" fill="#111111"/>
<path d="M129.291 19.5405H126.556L124.038 27.072L121.499 19.5405H118.785L122.779 30.5113L121.238 34.9517H123.778L125.471 29.9889L129.291 19.5405Z" fill="#111111"/>
<path d="M31.6554 23.4824C31.6554 32.2483 24.5692 39.3545 15.8278 39.3545C7.08633 39.3545 0 32.2483 0 23.4824C0 14.7165 7.08633 7.61028 15.8278 7.61028C24.5692 7.61028 31.6554 14.7165 31.6554 23.4824Z" fill="#111111"/>
<path d="M41.1522 6.02298C41.1522 9.15367 38.6214 11.6916 35.4993 11.6916C32.3774 11.6916 29.8466 9.15367 29.8466 6.02298C29.8466 2.89231 32.3774 0.354385 35.4993 0.354385C38.6214 0.354385 41.1522 2.89231 41.1522 6.02298Z" fill="#111111"/>
</g>
<defs>
<clipPath id="clip0">
<rect width="129.291" height="39" fill="white" transform="translate(0 0.354385)"/>
</clipPath>
</defs>
</svg>
