<svg width="4744" height="1431" viewBox="0 0 4744 1431" fill="none" xmlns="http://www.w3.org/2000/svg">
<rect width="4744" height="1431" fill="white"/>
<path d="M1563.33 1106.53H1662.09V735.934L1814.22 1106.53H1893.86L2045.19 735.934V1106.53H2143.96V547.441H2022.89L1854.04 960.368L1685.19 547.441H1563.33V1106.53Z" fill="#111111"/>
<path d="M2414.18 1112.92C2536.04 1112.92 2623.65 1025.06 2623.65 905.258C2623.65 785.453 2536.04 697.596 2414.18 697.596C2291.53 697.596 2203.91 785.453 2203.91 905.258C2203.91 1025.06 2291.53 1112.92 2414.18 1112.92ZM2414.18 1028.26C2347.28 1028.26 2302.68 977.939 2302.68 905.258C2302.68 832.576 2347.28 782.258 2414.18 782.258C2480.29 782.258 2524.89 832.576 2524.89 905.258C2524.89 977.939 2480.29 1028.26 2414.18 1028.26Z" fill="#111111"/>
<path d="M2862.6 1112.92C2984.46 1112.92 3072.07 1025.06 3072.07 905.258C3072.07 785.453 2984.46 697.596 2862.6 697.596C2739.94 697.596 2652.33 785.453 2652.33 905.258C2652.33 1025.06 2739.94 1112.92 2862.6 1112.92ZM2862.6 1028.26C2795.69 1028.26 2751.09 977.939 2751.09 905.258C2751.09 832.576 2795.69 782.258 2862.6 782.258C2928.7 782.258 2973.31 832.576 2973.31 905.258C2973.31 977.939 2928.7 1028.26 2862.6 1028.26Z" fill="#111111"/>
<path d="M3122.25 1106.53H3220.22V886.888C3220.22 827.784 3258.45 784.654 3313.4 784.654C3363.58 784.654 3397.03 822.992 3397.03 878.102V1106.53H3495V857.336C3495 763.089 3436.06 697.596 3345.26 697.596C3287.92 697.596 3242.52 722.356 3220.22 766.284V703.986H3122.25V1106.53Z" fill="#111111"/>
<path d="M3576.34 1106.53H3682.27V894.076H3800.14C3916.43 894.076 3985.72 822.193 3985.72 720.758C3985.72 619.324 3916.43 547.441 3800.14 547.441H3576.34V1106.53ZM3682.27 805.42V636.096H3795.37C3857.49 636.096 3882.98 676.031 3882.98 720.758C3882.98 765.485 3857.49 805.42 3795.37 805.42H3682.27Z" fill="#111111"/>
<path d="M4173.8 697.596C4069.47 697.596 4001.77 759.895 3996.99 839.764H4084.6C4086.19 803.823 4117.26 771.076 4169.03 771.076C4220.8 771.076 4251.06 799.031 4251.06 838.167C4251.06 854.141 4241.5 865.323 4221.59 865.323H4147.52C4057.52 865.323 3996.99 914.043 3996.99 992.316C3996.99 1061.8 4051.15 1112.92 4130.8 1112.92C4188.14 1112.92 4234.34 1086.56 4251.06 1046.63V1106.53H4347.43V847.751C4347.43 756.7 4275.75 697.596 4173.8 697.596ZM4153.89 1040.24C4117.26 1040.24 4091.77 1019.47 4091.77 988.322C4091.77 953.18 4119.65 930.017 4161.06 930.017H4251.06V936.407C4251.06 997.108 4215.22 1040.24 4153.89 1040.24Z" fill="#111111"/>
<path d="M4744 703.986H4643.65L4551.25 980.335L4458.07 703.986H4358.51L4505.06 1106.53L4448.51 1269.46H4541.7L4603.82 1087.36L4744 703.986Z" fill="#111111"/>
<path d="M1161.51 848.616C1161.51 1170.26 901.499 1431 580.757 1431C260.014 1431 0 1170.26 0 848.616C0 526.975 260.014 266.233 580.757 266.233C901.499 266.233 1161.51 526.975 1161.51 848.616Z" fill="#111111"/>
<path d="M1509.97 207.994C1509.97 322.866 1417.11 415.988 1302.55 415.988C1188 415.988 1095.14 322.866 1095.14 207.994C1095.14 93.1222 1188 0 1302.55 0C1417.11 0 1509.97 93.1222 1509.97 207.994Z" fill="#111111"/>
</svg>
