<svg width="40" height="40" viewBox="0 0 40 40" fill="none" xmlns="http://www.w3.org/2000/svg">
<g clip-path="url(#clip0)">
<path d="M34.226 21.3533H31.1326C31.4479 22.2166 31.6201 23.1482 31.6201 24.1192V35.8106C31.6201 36.2155 31.5497 36.6041 31.4215 36.9655H36.5356C38.446 36.9655 40.0002 35.4113 40.0002 33.5009V27.1274C40.0002 23.9436 37.4099 21.3533 34.226 21.3533Z" fill="black"/>
<path d="M8.38009 24.1192C8.38009 23.1481 8.55236 22.2166 8.86767 21.3533H5.77423C2.59032 21.3533 0 23.9436 0 27.1275V33.501C0 35.4113 1.55414 36.9656 3.46454 36.9656H8.57877C8.45056 36.604 8.38009 36.2155 8.38009 35.8106V24.1192Z" fill="black"/>
<path d="M23.536 18.345H16.4639C13.28 18.345 10.6897 20.9353 10.6897 24.1192V35.8106C10.6897 36.4484 11.2067 36.9655 11.8445 36.9655H28.1553C28.7932 36.9655 29.3102 36.4484 29.3102 35.8106V24.1192C29.3102 20.9353 26.7199 18.345 23.536 18.345Z" fill="black"/>
<path d="M20.0001 3.03442C16.1711 3.03442 13.0559 6.14959 13.0559 9.97873C13.0559 12.576 14.4894 14.8444 16.6065 16.0353C17.6106 16.6002 18.7683 16.923 20.0001 16.923C21.232 16.923 22.3897 16.6002 23.3938 16.0353C25.5109 14.8444 26.9444 12.5759 26.9444 9.97873C26.9444 6.14966 23.8292 3.03442 20.0001 3.03442Z" fill="black"/>
<path d="M7.80592 9.50684C4.94224 9.50684 2.61255 11.8365 2.61255 14.7002C2.61255 17.5639 4.94224 19.8936 7.80592 19.8936C8.53233 19.8936 9.22405 19.7431 9.85241 19.4726C10.9388 19.0049 11.8346 18.1769 12.3889 17.1398C12.778 16.4119 12.9993 15.5815 12.9993 14.7002C12.9993 11.8366 10.6696 9.50684 7.80592 9.50684Z" fill="black"/>
<path d="M32.1941 9.50684C29.3304 9.50684 27.0007 11.8365 27.0007 14.7002C27.0007 15.5816 27.2221 16.412 27.6111 17.1398C28.1654 18.177 29.0612 19.005 30.1476 19.4726C30.776 19.7431 31.4677 19.8936 32.1941 19.8936C35.0578 19.8936 37.3875 17.5639 37.3875 14.7002C37.3875 11.8365 35.0578 9.50684 32.1941 9.50684Z" fill="black"/>
</g>
<defs>
<clipPath id="clip0">
<rect width="40" height="40" fill="white"/>
</clipPath>
</defs>
</svg>
