<svg width="30" height="30" viewBox="0 0 30 30" fill="none" xmlns="http://www.w3.org/2000/svg">
<path d="M14.9999 0C23.2847 0 30 6.71625 30 15.0001C30 23.2839 23.2847 30 14.9999 30C6.71522 30 0 23.2838 0 15.0001C0 6.71635 6.71532 0 14.9999 0Z" fill="url(#paint0_linear)"/>
<path d="M8.45241 20.61H11.2612V11.2481H8.45241V20.61ZM19.395 10.9238C18.0318 10.9238 16.8121 11.4216 15.9469 12.5204V11.2173H13.1278V20.6101H15.9469V15.5307C15.9469 14.4572 16.9303 13.41 18.1622 13.41C19.394 13.41 19.6978 14.4572 19.6978 15.5044V20.6091H22.5066V15.2954C22.5065 11.6044 20.759 10.9238 19.395 10.9238ZM9.84367 10.3125C10.6199 10.3125 11.25 9.68245 11.25 8.90619C11.25 8.12993 10.6199 7.5 9.84367 7.5C9.06741 7.5 8.43738 8.13003 8.43738 8.90629C8.43738 9.68256 9.06741 10.3125 9.84367 10.3125Z" fill="black"/>
<defs>
<linearGradient id="paint0_linear" x1="3.68852" y1="2.47269e-06" x2="30.1043" y2="3.5412" gradientUnits="userSpaceOnUse">
<stop stop-color="#D8F69B"/>
<stop offset="0.477083" stop-color="#BFE9FD"/>
<stop offset="1" stop-color="#ECBACE"/>
</linearGradient>
</defs>
</svg>
