<svg id="Layer_1" height="512" viewBox="0 0 512 512" width="512" xmlns="http://www.w3.org/2000/svg" data-name="Layer 1"><path d="m450.85 443.01a293.25 293.25 0 0 1 -2.85-39.19v-86.67a191.832 191.832 0 0 0 -56.15-136.05l-.035-.15a64.112 64.112 0 0 0 -29.268-16.71l-5.1-1.32-.147-.36-190.3.36v.12a130.4 130.4 0 0 0 -72.74 52.73c-19.33 28.58-30.26 63.03-30.26 101.38v86.55a293.072 293.072 0 0 1 -2.86 39.4 46.51 46.51 0 0 0 46.04 52.9l297.715-.09a46.459 46.459 0 0 0 45.955-52.9z" fill="#75967a"/><path d="m269.7 28.02-6.28 2.85a134.565 134.565 0 0 1 -112.23-.49l-12.015-5.65 51.825 98.27h126.41l55.56-98.32a134.544 134.544 0 0 0 -103.27 3.34z" fill="#75967a"/><path d="m256 448.27a117.952 117.952 0 0 1 -83.41-201.36h.01a117.934 117.934 0 0 1 166.8 0h.01a117.955 117.955 0 0 1 -83.41 201.36z" fill="#edb740"/><path d="m256 246.06a84.255 84.255 0 1 1 -84.26 84.25 84.259 84.259 0 0 1 84.26-84.25z" fill="#f3ce7d"/><path d="m167 163v.04a130.4 130.4 0 0 0 -72.74 52.73c-19.33 28.58-30.26 63.03-30.26 101.38v86.55a293.072 293.072 0 0 1 -2.86 39.4 46.51 46.51 0 0 0 46.04 52.9l29.67-.009a46.506 46.506 0 0 1 -45.71-52.891 293.072 293.072 0 0 0 2.86-39.4v-86.55c0-38.35 10.93-72.8 30.26-101.38a130.4 130.4 0 0 1 72.74-52.73v-.04z" fill="#5b755f"/><path d="m151.19 30.38-12.015-5.65 51.825 98.27h30l-44.166-83.747a134.467 134.467 0 0 1 -25.644-8.873z" fill="#5b755f"/><path d="m201.74 330.31a84.263 84.263 0 0 1 69.26-82.892 84.255 84.255 0 1 0 0 165.794 84.267 84.267 0 0 1 -69.26-82.902z" fill="#ceae6f"/><path d="m265.449 127.911a6 6 0 0 1 -5.381-8.646l22.284-45.386a6 6 0 0 1 10.772 5.289l-22.285 45.386a6 6 0 0 1 -5.39 3.357z" fill="#475b4a"/><path d="m233.764 128.3a6 6 0 0 1 -5.647-3.973l-9.217-25.652a6 6 0 1 1 11.293-4.057l9.216 25.648a6 6 0 0 1 -5.646 8.03z" fill="#475b4a"/><path d="m130.324 229.936a6 6 0 0 1 -4.884-9.478c1.029-1.447 2.089-2.893 3.152-4.3a6 6 0 1 1 9.572 7.236c-.992 1.313-1.983 2.665-2.945 4.017a5.992 5.992 0 0 1 -4.895 2.525z" fill="#f4f8fc"/><path d="m97.37 381.94a6 6 0 0 1 -6-6v-47.152a187.718 187.718 0 0 1 19.206-83.512 6 6 0 1 1 10.766 5.3 175.693 175.693 0 0 0 -17.972 78.178v47.186a6 6 0 0 1 -6 6z" fill="#f4f8fc"/><path d="m256 297.9a13 13 0 0 1 12.989 12.989 6 6 0 0 0 12 0 25.03 25.03 0 0 0 -18.989-24.251v-5.166a6 6 0 0 0 -12 0v5.166a24.987 24.987 0 0 0 6 49.244 12.986 12.986 0 0 1 .13 25.971c-.044 0-.086-.007-.13-.007s-.086.006-.13.007a13 13 0 0 1 -12.859-12.982 6 6 0 0 0 -12 0 25.028 25.028 0 0 0 18.989 24.255v6.031a6 6 0 0 0 12 0v-6.031a24.987 24.987 0 0 0 -6-49.244 12.989 12.989 0 1 1 0-25.977z" fill="#4e6cca"/><g fill="#c49639"><path d="m256 430.018a6 6 0 0 0 -6 6v12.1q2.981.15 6 .151t6-.151v-12.1a6 6 0 0 0 -6-6z"/><path d="m256 230.611a6 6 0 0 0 6-6v-12.1q-2.981-.15-6-.151t-6 .151v12.1a6 6 0 0 0 6 6z"/><path d="m373.809 324h-12.109a6 6 0 0 0 0 12h12.106c.1-2 .151-3.991.151-6s-.048-4-.148-6z"/><path d="m156.3 330a6 6 0 0 0 -6-6h-12.109c-.1 2-.151 3.985-.151 6s.051 4 .151 6h12.109a6 6 0 0 0 6-6z"/><path d="m326.5 259.813a6 6 0 0 0 8.485 0l8.555-8.509a30.62 30.62 0 0 0 -4.131-4.3h-.01c-1.414-2-2.866-2.835-4.35-4.176l-8.549 8.527a5.972 5.972 0 0 0 0 8.458z"/><path d="m185.5 400.815a6 6 0 0 0 -8.485 0l-8.556 8.556q2.013 2.225 4.132 4.349t4.355 4.135l8.554-8.555a6 6 0 0 0 0-8.485z"/><path d="m181.256 261.571a6 6 0 0 0 4.243-10.243l-8.549-8.5c-1.484 1.341-2.936 2.176-4.35 4.176h-.01a30.62 30.62 0 0 0 -4.131 4.3l8.555 8.532a5.959 5.959 0 0 0 4.242 1.735z"/><path d="m326.5 400.815a6 6 0 0 0 0 8.485l8.554 8.555q2.229-2.013 4.355-4.135t4.132-4.349l-8.556-8.556a6 6 0 0 0 -8.485 0z"/></g><path d="m353.55 122h-188.02a20.5 20.5 0 0 0 0 41l191.78-.4a20.483 20.483 0 0 0 -3.76-40.6z" fill="#7b9aaa"/><path d="m175.12 142.525a20.5 20.5 0 0 1 20.41-20.525h-30a20.5 20.5 0 0 0 0 41l28.818-.06a20.459 20.459 0 0 1 -19.228-20.415z" fill="#637b84"/></svg>