<svg id="Layer_1" height="512" viewBox="0 0 512 512" width="512" xmlns="http://www.w3.org/2000/svg" xmlns:xlink="http://www.w3.org/1999/xlink" data-name="Layer 1"><linearGradient id="linear-gradient" gradientUnits="userSpaceOnUse" x1="256" x2="256" y1="476" y2="53.034"><stop offset=".322" stop-color="#a163f5"/><stop offset=".466" stop-color="#b074ee"/><stop offset=".752" stop-color="#d8a1dd"/><stop offset=".898" stop-color="#efbad3"/></linearGradient><linearGradient id="linear-gradient-2" x1="256" x2="256" xlink:href="#linear-gradient" y1="476" y2="53.034"/><linearGradient id="linear-gradient-4" x1="255.999" x2="255.999" xlink:href="#linear-gradient" y1="476" y2="53.034"/><linearGradient id="linear-gradient-5" x1="131.854" x2="131.854" xlink:href="#linear-gradient" y1="476" y2="53.034"/><linearGradient id="linear-gradient-6" x1="106.397" x2="106.397" xlink:href="#linear-gradient" y1="476" y2="53.034"/><path d="m256 240.058a90.257 90.257 0 1 0 90.257 90.256 90.358 90.358 0 0 0 -90.257-90.256zm0 168.513a78.257 78.257 0 1 1 78.257-78.257 78.345 78.345 0 0 1 -78.257 78.257z" fill="url(#linear-gradient)"/><path d="m256 205.814a124.5 124.5 0 1 0 124.5 124.5 124.641 124.641 0 0 0 -124.5-124.5zm105.7 130.186h6.584a111.227 111.227 0 0 1 -28.684 69.273l-4.616-4.537a6.021 6.021 0 0 0 -8.485 8.545l4.615 4.625a112.006 112.006 0 0 1 -69.114 28.694v-6.583a6 6 0 0 0 -12 0v6.583a112 112 0 0 1 -69.116-28.685l4.616-4.615a6 6 0 1 0 -8.485-8.485l-4.616 4.458a111.227 111.227 0 0 1 -28.686-69.273h6.587a6 6 0 1 0 0-12h-6.584a112.757 112.757 0 0 1 28.684-68.959l4.616 4.694a6.023 6.023 0 0 0 4.242 1.8 5.975 5.975 0 0 0 4.243-10.213l-4.616-4.61a112 112 0 0 1 69.115-28.685v6.584a6 6 0 0 0 12 0v-6.584a112 112 0 0 1 69.117 28.686l-4.616 4.615a6 6 0 1 0 8.485 8.485l4.616-4.772a112.757 112.757 0 0 1 28.685 68.959h-6.587a6 6 0 0 0 0 12z" fill="url(#linear-gradient-2)"/><path d="m256 297.9a13 13 0 0 1 12.989 12.989 6 6 0 0 0 12 0 25.03 25.03 0 0 0 -18.989-24.251v-5.166a6 6 0 0 0 -12 0v5.166a24.987 24.987 0 0 0 6 49.244 12.986 12.986 0 0 1 .13 25.971c-.044 0-.086-.007-.13-.007s-.086.006-.13.007a13 13 0 0 1 -12.859-12.982 6 6 0 0 0 -12 0 25.028 25.028 0 0 0 18.989 24.255v6.031a6 6 0 0 0 12 0v-6.031a24.987 24.987 0 0 0 -6-49.244 12.989 12.989 0 1 1 0-25.977z" fill="url(#linear-gradient-2)"/><path d="m454 403.82v-86.661a196.863 196.863 0 0 0 -57.8-140.306l-.1-.149a70.159 70.159 0 0 0 -23.836-15.604 26.456 26.456 0 0 0 -18.715-45.1h-25.809l50.438-88.342a5.965 5.965 0 0 0 -3.084-8.547 141.474 141.474 0 0 0 -107.869 3.437l-6.282 2.852a128.416 128.416 0 0 1 -107.227-.467l-12.157-5.643a6 6 0 0 0 -6.88 1.315 5.924 5.924 0 0 0 -.945 6.893l47.009 88.502h-15.215a26.392 26.392 0 0 0 -16.368 47.11 137.475 137.475 0 0 0 -59.783 49.3c-20.658 30.538-31.377 66.757-31.377 104.74v86.55a287.839 287.839 0 0 1 -2.808 38.593 52.435 52.435 0 0 0 51.873 59.707h.016l297.87-.086a52.283 52.283 0 0 0 51.849-59.714 286.862 286.862 0 0 1 -2.8-38.38zm-301.344-366.269a140.4 140.4 0 0 0 113.244-1.244l6.281-2.837a129.5 129.5 0 0 1 92-5.494l-50.257 88.024h-38.932l18.132-36.88a6 6 0 0 0 -10.772-5.3l-20.729 42.18h-23.711l-7.718-21.43a6 6 0 0 0 -11.294 4.045l6.261 17.385h-30.831zm12.872 90.449h188.021a14.5 14.5 0 0 1 0 29h-188.021a14.5 14.5 0 0 1 0-29zm269.824 348.049a40.4 40.4 0 0 1 -30.452 13.865l-297.822.086h-.012a40.294 40.294 0 0 1 -39.983-46.094 299.979 299.979 0 0 0 2.917-40.206v-86.55c0-35.577 10.007-69.431 29.317-97.98a124.485 124.485 0 0 1 69.136-50.17l187.744-.173 4.906 1.243a58.231 58.231 0 0 1 26.575 15.139l.149.144a185.322 185.322 0 0 1 54.173 131.797v86.67a298.931 298.931 0 0 0 2.909 39.994 40.62 40.62 0 0 1 -9.557 32.235z" fill="url(#linear-gradient-4)"/><path d="m135.219 227.413c.962-1.352 1.953-2.7 2.945-4.017a6 6 0 1 0 -9.572-7.236c-1.063 1.405-2.123 2.851-3.152 4.3a6 6 0 1 0 9.779 6.955z" fill="url(#linear-gradient-5)"/><path d="m118.517 242.543a6.161 6.161 0 0 0 -8.173 2.733 190.051 190.051 0 0 0 -19.344 83.512v47.152a6 6 0 0 0 12 0v-47.185a177.92 177.92 0 0 1 18.157-78.178 5.967 5.967 0 0 0 -2.64-8.034z" fill="url(#linear-gradient-6)"/></svg>