<svg width="30" height="30" viewBox="0 0 30 30" fill="none" xmlns="http://www.w3.org/2000/svg">
<path d="M30 15C30 23.2843 23.2843 30 15.0001 30C6.71576 30 0 23.2843 0 15C0 6.71573 6.71576 0 15.0001 0C23.2843 0 30 6.71573 30 15Z" fill="#111111"/>
<path d="M7.25 15C7.25 16.3807 6.13075 17.5 4.74994 17.5C3.36925 17.5 2.25 16.3807 2.25 15C2.25 13.6193 3.36925 12.5 4.74994 12.5C6.13075 12.5 7.25 13.6193 7.25 15Z" fill="white"/>
<path d="M16.625 15C16.625 16.7259 15.2259 18.125 13.4999 18.125C11.7741 18.125 10.375 16.7259 10.375 15C10.375 13.2741 11.7741 11.875 13.4999 11.875C15.2259 11.875 16.625 13.2741 16.625 15Z" fill="white"/>
<path d="M27.25 15C27.25 17.0711 25.5711 18.75 23.4999 18.75C21.4289 18.75 19.75 17.0711 19.75 15C19.75 12.9289 21.4289 11.25 23.4999 11.25C25.5711 11.25 27.25 12.9289 27.25 15Z" fill="white"/>
</svg>
