<svg width="40" height="40" viewBox="0 0 40 40" fill="none" xmlns="http://www.w3.org/2000/svg">
<path d="M39.1094 16.6094L34.4297 15.4609C34.1719 14.6406 33.8438 13.8438 33.4453 13.0703L35.8359 9.08594C36.1172 8.61719 36.0469 8.03125 35.6719 7.65625L32.3438 4.32812C31.9688 3.95312 31.3828 3.88281 30.9141 4.16406L26.9297 6.55469C26.1563 6.15625 25.3594 5.82812 24.5391 5.57031L23.4141 0.890625C23.2734 0.375 22.8047 0 22.2656 0H17.5781C17.0391 0 16.5703 0.375 16.4297 0.890625L15.3047 5.57031C14.4844 5.82812 13.6875 6.15625 12.9141 6.55469L8.92969 4.16406C8.46094 3.88281 7.875 3.95312 7.5 4.32812L4.17188 7.65625C3.79688 8.03125 3.72656 8.61719 4.00781 9.08594L6.39844 13.0703C6 13.8438 5.67188 14.6406 5.41406 15.4609L0.890625 16.6094C0.375 16.7266 0 17.1953 0 17.7344V22.4219C0 22.9609 0.375 23.4297 0.890625 23.5469L5.41406 24.6953C5.67188 25.5156 6 26.3125 6.39844 27.0859L4.00781 31.0703C3.72656 31.5391 3.79688 32.125 4.17188 32.5L7.5 35.8281C7.875 36.2031 8.46094 36.2734 8.92969 35.9922L12.9141 33.6016C13.6875 34 14.4844 34.3281 15.3047 34.5859L16.4297 39.1094C16.5703 39.625 17.0391 40 17.5781 40H22.2656C22.8047 40 23.2734 39.625 23.4141 39.1094L24.5391 34.5859C25.3594 34.3281 26.1563 34 26.9297 33.6016L30.9141 35.9922C31.3828 36.2734 31.9688 36.2031 32.3438 35.8281L35.6719 32.5C36.0469 32.125 36.1172 31.5391 35.8359 31.0703L33.4453 27.0859C33.8438 26.3125 34.1719 25.5156 34.4297 24.6953L39.1094 23.5469C39.625 23.4297 40 22.9609 40 22.4219V17.7344C40 17.1953 39.625 16.7266 39.1094 16.6094ZM19.9219 25.9375C16.6875 25.9375 14.0625 23.3125 14.0625 20.0781C14.0625 16.8438 16.6875 14.2188 19.9219 14.2188C23.1562 14.2188 25.7812 16.8438 25.7812 20.0781C25.7812 23.3125 23.1562 25.9375 19.9219 25.9375Z" fill="black"/>
</svg>
