<svg width="40" height="40" viewBox="0 0 40 40" fill="none" xmlns="http://www.w3.org/2000/svg">
<g clip-path="url(#clip0)">
<path d="M39.9426 15.4108C39.8048 14.9865 39.4381 14.6773 38.9967 14.6132L26.5965 12.8113L21.0508 1.57483C20.8535 1.17483 20.4461 0.921631 20.0001 0.921631C19.554 0.921631 19.1466 1.17483 18.9492 1.57483L13.4033 12.8113L1.00335 14.6132C0.562019 14.6773 0.195223 14.9865 0.0574113 15.4107C-0.0804787 15.835 0.0345208 16.3007 0.353973 16.612L9.32644 25.3584L7.20863 37.7086C7.13317 38.1483 7.31395 38.5925 7.6748 38.8548C7.87894 39.003 8.12074 39.0785 8.36371 39.0785C8.55027 39.0785 8.73746 39.0341 8.90886 38.9439L20 33.1128L31.0907 38.9438C31.4856 39.1514 31.9639 39.1169 32.3248 38.8547C32.6856 38.5925 32.8665 38.1481 32.7911 37.7084L30.6726 25.3584L39.6461 16.612C39.9655 16.3007 40.0805 15.835 39.9426 15.4108Z" fill="black"/>
</g>
<defs>
<clipPath id="clip0">
<rect width="40" height="40" fill="white"/>
</clipPath>
</defs>
</svg>
