<svg width="30" height="30" viewBox="0 0 30 30" fill="none" xmlns="http://www.w3.org/2000/svg">
<path d="M14.9999 0C23.2847 0 30 6.71625 30 15.0001C30 23.2848 23.2847 30 14.9999 30C6.71522 30 0 23.2847 0 15.0001C0 6.71625 6.71532 0 14.9999 0Z" fill="url(#paint0_linear)"/>
<path d="M24.3778 10.1056C23.7225 10.3886 23.0174 10.579 22.2778 10.6653C23.0335 10.2255 23.6128 9.53083 23.8856 8.70122C23.1788 9.10902 22.3969 9.40437 21.5634 9.56275C20.8969 8.87371 19.9472 8.44336 18.8953 8.44336C16.8779 8.44336 15.241 10.0306 15.241 11.9899C15.241 12.2683 15.2729 12.5393 15.3356 12.799C12.2981 12.6509 9.60377 11.238 7.80193 9.09213C7.48691 9.6162 7.3069 10.2246 7.3069 10.8752C7.3069 12.1052 7.95187 13.1927 8.93254 13.8275C8.33258 13.8087 7.77 13.6502 7.27601 13.3831V13.4281C7.27601 15.1475 8.53597 16.5809 10.2085 16.9072C9.90189 16.9878 9.57936 17.0319 9.2456 17.0319C9.01029 17.0319 8.78158 17.0104 8.55842 16.9681C9.02337 18.3781 10.3734 19.4037 11.9737 19.4319C10.7222 20.3844 9.14623 20.9507 7.43347 20.9507C7.13812 20.9507 6.84751 20.9338 6.56061 20.901C8.17966 21.9079 10.0997 22.4957 12.165 22.4957C18.8887 22.4957 22.5656 17.0882 22.5656 12.4007L22.5553 11.9413C23.2678 11.4424 23.8875 10.8181 24.3778 10.1056Z" fill="black"/>
<defs>
<linearGradient id="paint0_linear" x1="3.68852" y1="2.47269e-06" x2="30.1043" y2="3.5412" gradientUnits="userSpaceOnUse">
<stop stop-color="#D8F69B"/>
<stop offset="0.477083" stop-color="#BFE9FD"/>
<stop offset="1" stop-color="#ECBACE"/>
</linearGradient>
</defs>
</svg>
