<svg width="108" height="108" viewBox="0 0 108 108" fill="none" xmlns="http://www.w3.org/2000/svg">
<g filter="url(#filter0_d)">
<rect width="100" height="100" rx="50" fill="black"/>
<g clip-path="url(#clip0)">
<path d="M81.6334 18.3192C81.5643 17.7602 81.124 17.3199 80.5651 17.2508C75.5285 16.6278 70.3312 17.1708 65.5335 18.8205C60.7352 20.4703 56.3024 23.2387 52.7147 26.8265L44.5274 35.0138L32.7092 36.5379C32.4398 36.5727 32.1897 36.6957 31.9975 36.8876L20.603 48.2822C20.2804 48.6047 20.1632 49.0796 20.2986 49.5153C20.4338 49.951 20.7995 50.2758 21.248 50.3589L29.8635 51.9546L31.5564 53.6475L27.9523 55.5992C27.6112 55.7838 27.3773 56.1188 27.3215 56.5026C27.2656 56.8864 27.3942 57.2739 27.6684 57.5481L41.3357 71.2154C41.5678 71.4475 41.881 71.5753 42.2045 71.5753C42.2631 71.5753 42.3224 71.571 42.3814 71.5625C42.7652 71.5067 43.1002 71.2728 43.2848 70.9317L45.2366 67.3276L46.9295 69.0205L48.5253 77.636C48.6085 78.0846 48.9331 78.4502 49.3689 78.5855C49.4886 78.6227 49.6113 78.6407 49.7332 78.6407C50.0542 78.6407 50.3681 78.5148 50.6021 78.2809L61.9967 66.8863C62.1886 66.6943 62.3117 66.4441 62.3464 66.1748L63.8707 54.3565L72.058 46.169C75.6458 42.5812 78.4142 38.1486 80.064 33.3503C81.7135 28.5526 82.2562 23.3547 81.6334 18.3192ZM30.0507 49.4909L23.9919 48.3687L33.4388 38.9214L41.6833 37.8582L30.0507 49.4909ZM41.9085 68.3139L30.5703 56.9758L33.3689 55.4603L43.4238 65.5155L41.9085 68.3139ZM59.9627 65.4454L50.5156 74.8925L49.3933 68.8338L61.026 57.201L59.9627 65.4454ZM70.3203 44.432L48.0678 66.6845L32.1996 50.8164L54.4521 28.5637C57.6852 25.3304 61.6597 22.8182 65.9653 21.2762C66.5214 24.1414 67.9224 26.7994 70.0036 28.8805C72.0847 30.9618 74.7426 32.3628 77.608 32.9191C76.0658 37.2243 73.5534 41.1987 70.3203 44.432ZM78.3475 30.5585C75.8572 30.1338 73.5408 28.9429 71.7409 27.1432C69.9411 25.3436 68.7504 23.0269 68.3256 20.5366C71.8869 19.5769 75.6278 19.2496 79.2987 19.5854C79.6347 23.2564 79.3072 26.9973 78.3475 30.5585Z" fill="url(#paint0_linear)"/>
<path d="M53.2534 35.0908C50.3476 37.9968 50.3476 42.7249 53.2534 45.6309C54.7065 47.084 56.6148 47.8103 58.5236 47.8103C60.4317 47.8103 62.3408 47.0837 63.7936 45.6309H63.7937C66.6996 42.7251 66.6996 37.9968 63.7936 35.0908C60.8876 32.1849 56.1593 32.1851 53.2534 35.0908ZM62.0563 43.8935C60.108 45.8416 56.9385 45.8412 54.9909 43.8935C53.0428 41.9455 53.0428 38.776 54.9909 36.828C55.9647 35.8541 57.2441 35.3673 58.5234 35.3673C59.8029 35.3673 61.0822 35.8542 62.056 36.828C64.0041 38.776 64.0041 41.9455 62.0563 43.8935Z" fill="url(#paint1_linear)"/>
<path d="M33.1123 66.0038C32.6323 65.524 31.8546 65.524 31.3748 66.0038L20.8345 76.5439C20.3547 77.0237 20.3547 77.8016 20.8345 78.2812C21.0745 78.521 21.389 78.6411 21.7033 78.6411C22.0176 78.6411 22.3321 78.5212 22.5721 78.2812L33.1123 67.741C33.5919 67.2614 33.5919 66.4835 33.1123 66.0038Z" fill="url(#paint2_linear)"/>
<path d="M34.7337 69.3627L29.985 74.1115C29.5052 74.5913 29.5052 75.3692 29.985 75.8488C30.2249 76.0886 30.5394 76.2086 30.8538 76.2086C31.1681 76.2086 31.4826 76.0887 31.7226 75.8488L36.4713 71.1C36.9511 70.6202 36.9511 69.8423 36.4713 69.3627C35.9914 68.8829 35.2137 68.8829 34.7337 69.3627Z" fill="url(#paint3_linear)"/>
<path d="M28.3224 76.283C27.8084 76.283 27.3393 76.6145 27.1657 77.0975C26.9891 77.5886 27.1534 78.1526 27.5614 78.4761C27.9786 78.807 28.5878 78.825 29.0238 78.5195C29.489 78.1936 29.6777 77.5678 29.4561 77.0414C29.2738 76.5868 28.8099 76.283 28.3224 76.283Z" fill="url(#paint4_linear)"/>
<path d="M29.4561 77.0414C29.4872 77.1153 29.4266 76.9677 29.4561 77.0414V77.0414Z" fill="url(#paint5_linear)"/>
<path d="M24.8477 79.2488L24.1938 79.9027C23.7138 80.3824 23.7138 81.1603 24.1936 81.6401C24.4336 81.8799 24.7479 82 25.0624 82C25.3768 82 25.6913 81.8801 25.9311 81.6403L26.585 80.9864C27.0649 80.5066 27.0649 79.7287 26.5851 79.2491C26.1053 78.7695 25.3273 78.769 24.8477 79.2488Z" fill="url(#paint6_linear)"/>
<path d="M23.9619 68.4361C23.482 67.9563 22.7042 67.9563 22.2245 68.4361L17.4757 73.1848C16.9959 73.6646 16.9959 74.4425 17.4757 74.9221C17.7156 75.1619 18.0301 75.282 18.3445 75.282C18.6588 75.282 18.9733 75.1621 19.2133 74.9221L23.9621 70.1733C24.4417 69.6937 24.4417 68.9158 23.9619 68.4361Z" fill="url(#paint7_linear)"/>
<path d="M25.9226 67.9646C26.4211 67.8393 26.7952 67.4049 26.8471 66.8939C26.898 66.3934 26.6229 65.903 26.1762 65.6773C25.702 65.4375 25.1077 65.5376 24.7398 65.922C24.3458 66.3336 24.289 66.9746 24.6002 67.4511C24.5904 67.4364 24.5829 67.4255 24.6027 67.4559C24.6233 67.4862 24.6163 67.4752 24.6065 67.4606C24.8959 67.8811 25.4242 68.0899 25.9226 67.9646Z" fill="url(#paint8_linear)"/>
<path d="M29.0995 65.036L29.7532 64.3821C30.233 63.9024 30.233 63.1245 29.753 62.6448C29.2728 62.1649 28.4949 62.1651 28.0157 62.645L27.362 63.2989C26.8822 63.7787 26.8822 64.5566 27.3622 65.0362C27.6021 65.276 27.9165 65.3959 28.2308 65.3959C28.5451 65.3959 28.8596 65.276 29.0995 65.036Z" fill="url(#paint9_linear)"/>
</g>
</g>
<defs>
<filter id="filter0_d" x="0" y="0" width="108" height="108" filterUnits="userSpaceOnUse" color-interpolation-filters="sRGB">
<feFlood flood-opacity="0" result="BackgroundImageFix"/>
<feColorMatrix in="SourceAlpha" type="matrix" values="0 0 0 0 0 0 0 0 0 0 0 0 0 0 0 0 0 0 127 0"/>
<feOffset dx="4" dy="4"/>
<feGaussianBlur stdDeviation="2"/>
<feColorMatrix type="matrix" values="0 0 0 0 0 0 0 0 0 0 0 0 0 0 0 0 0 0 0.25 0"/>
<feBlend mode="normal" in2="BackgroundImageFix" result="effect1_dropShadow"/>
<feBlend mode="normal" in="SourceGraphic" in2="effect1_dropShadow" result="shape"/>
</filter>
<linearGradient id="paint0_linear" x1="27.822" y1="17" x2="82.0985" y2="24.2761" gradientUnits="userSpaceOnUse">
<stop stop-color="#D8F69B"/>
<stop offset="0.477083" stop-color="#BFE9FD"/>
<stop offset="1" stop-color="#ECBACE"/>
</linearGradient>
<linearGradient id="paint1_linear" x1="52.9059" y1="32.9114" x2="66.0249" y2="34.6701" gradientUnits="userSpaceOnUse">
<stop stop-color="#D8F69B"/>
<stop offset="0.477083" stop-color="#BFE9FD"/>
<stop offset="1" stop-color="#ECBACE"/>
</linearGradient>
<linearGradient id="paint2_linear" x1="22.0727" y1="65.6439" x2="33.5172" y2="67.1781" gradientUnits="userSpaceOnUse">
<stop stop-color="#D8F69B"/>
<stop offset="0.477083" stop-color="#BFE9FD"/>
<stop offset="1" stop-color="#ECBACE"/>
</linearGradient>
<linearGradient id="paint3_linear" x1="30.5111" y1="69.0029" x2="36.8562" y2="69.8535" gradientUnits="userSpaceOnUse">
<stop stop-color="#D8F69B"/>
<stop offset="0.477083" stop-color="#BFE9FD"/>
<stop offset="1" stop-color="#ECBACE"/>
</linearGradient>
<linearGradient id="paint4_linear" x1="27.3969" y1="76.283" x2="29.5573" y2="76.5725" gradientUnits="userSpaceOnUse">
<stop stop-color="#D8F69B"/>
<stop offset="0.477083" stop-color="#BFE9FD"/>
<stop offset="1" stop-color="#ECBACE"/>
</linearGradient>
<linearGradient id="paint5_linear" x1="29.4499" y1="77.0201" x2="29.4655" y2="77.021" gradientUnits="userSpaceOnUse">
<stop stop-color="#D8F69B"/>
<stop offset="0.477083" stop-color="#BFE9FD"/>
<stop offset="1" stop-color="#ECBACE"/>
</linearGradient>
<linearGradient id="paint6_linear" x1="24.2163" y1="78.8892" x2="26.9557" y2="79.2564" gradientUnits="userSpaceOnUse">
<stop stop-color="#D8F69B"/>
<stop offset="0.477083" stop-color="#BFE9FD"/>
<stop offset="1" stop-color="#ECBACE"/>
</linearGradient>
<linearGradient id="paint7_linear" x1="18.0018" y1="68.0762" x2="24.3468" y2="68.9268" gradientUnits="userSpaceOnUse">
<stop stop-color="#D8F69B"/>
<stop offset="0.477083" stop-color="#BFE9FD"/>
<stop offset="1" stop-color="#ECBACE"/>
</linearGradient>
<linearGradient id="paint8_linear" x1="24.702" y1="65.5479" x2="26.8617" y2="65.8373" gradientUnits="userSpaceOnUse">
<stop stop-color="#D8F69B"/>
<stop offset="0.477083" stop-color="#BFE9FD"/>
<stop offset="1" stop-color="#ECBACE"/>
</linearGradient>
<linearGradient id="paint9_linear" x1="27.3847" y1="62.285" x2="30.1238" y2="62.6522" gradientUnits="userSpaceOnUse">
<stop stop-color="#D8F69B"/>
<stop offset="0.477083" stop-color="#BFE9FD"/>
<stop offset="1" stop-color="#ECBACE"/>
</linearGradient>
<clipPath id="clip0">
<rect width="65" height="65" fill="white" transform="translate(17 17)"/>
</clipPath>
</defs>
</svg>
