<svg width="108" height="108" viewBox="0 0 108 108" fill="none" xmlns="http://www.w3.org/2000/svg">
<g filter="url(#filter0_d)">
<rect width="100" height="100" rx="50" fill="black"/>
<g clip-path="url(#clip0)">
<path d="M49.2832 80.5662C47.0189 80.5662 44.7558 80.1099 42.66 79.1983L32.6386 74.8419C29.013 73.2648 25.1796 72.266 21.245 71.8727L17.954 71.5436C17.4121 71.4896 17 71.0339 17 70.4896V60.1663C17 59.9372 17.0745 59.7142 17.2121 59.5312C17.4582 59.2021 23.3565 51.4964 32.3664 53.5013C37.4338 54.6274 41.5139 56.7347 44.0443 58.3045C45.8813 59.4439 48.0347 60.0457 50.2717 60.0457H60.2932C62.0205 60.0457 63.5387 60.9597 64.3878 62.3306L73.0189 52.3867C74.6923 50.1521 77.4299 48.7836 80.2961 48.7836H80.9409C81.2991 48.7836 81.6325 48.9642 81.8276 49.2636C82.0234 49.563 82.0543 49.9418 81.9107 50.2691L74.1044 68.0102C72.3977 71.8903 68.9225 74.8212 64.809 75.8498L63.4357 76.1928L55.4464 79.3886C53.4803 80.1747 51.3814 80.5662 49.2832 80.5662ZM19.1188 69.5308L21.4559 69.7648C25.6093 70.1799 29.6561 71.2351 33.484 72.8994L43.5049 77.2558C47.0286 78.788 51.0923 78.848 54.6603 77.4207L62.715 74.1988C62.7599 74.1812 62.8054 74.1667 62.852 74.1552L64.2951 73.7939C67.7782 72.923 70.7207 70.4417 72.165 67.1568L79.2851 50.9752C77.4621 51.2437 75.7845 52.2261 74.6669 53.7159L65.1054 64.7355C65.1066 64.7768 65.1072 64.8174 65.1072 64.8592C65.1072 67.5132 62.9478 69.6726 60.2938 69.6726H46.3116C44.494 69.6726 42.6976 69.9642 40.9733 70.5387L40.5842 69.5508L40.2551 68.5441L40.309 68.5265C42.2442 67.8817 44.2655 67.5538 46.3116 67.5538H60.2938C61.7793 67.5538 62.989 66.3447 62.989 64.8586C62.989 63.3725 61.7799 62.1634 60.2938 62.1634H50.2723C47.6401 62.1634 45.1007 61.4512 42.9285 60.1039C40.5381 58.6208 36.6847 56.6311 31.9082 55.5686C25.085 54.0553 20.1752 59.2918 19.1194 60.5409V69.5308H19.1188Z" fill="url(#paint0_linear)"/>
<path d="M58.7162 48.5442C57.0871 48.5442 55.2604 48.0412 53.2494 47.0357C53.0058 46.9133 52.8179 46.7011 52.7258 46.4448C52.6439 46.2151 50.7512 40.7707 53.7591 36.7445C55.9452 33.8178 60.0556 32.4996 65.983 32.8299C66.5237 32.8596 66.9546 33.2929 66.9813 33.8348C67.0025 34.2554 67.4394 44.1835 62.3769 47.489C61.3005 48.1927 60.0775 48.5442 58.7162 48.5442ZM54.6004 45.3356C57.3828 46.6405 59.6071 46.7684 61.2193 45.7157C64.2212 43.755 64.8703 37.9349 64.8861 34.9057C60.2417 34.7924 57.0798 35.8391 55.4561 38.0118C53.524 40.5992 54.2749 44.158 54.6004 45.3356Z" fill="url(#paint1_linear)"/>
<path d="M42.517 34.6657C40.6388 34.6657 38.4721 34.2633 36.5811 32.8784C33.3738 30.528 31.8998 26.0534 32.1992 19.5793C32.2246 19.0381 32.6537 18.6029 33.195 18.5708C33.6532 18.5447 44.4983 17.9659 48.1475 23.4436C49.8469 25.9934 49.7075 29.3329 47.7347 33.3711C47.6147 33.6166 47.405 33.8063 47.1486 33.9002C47.0062 33.953 45.0177 34.6657 42.517 34.6657ZM46.7832 32.9063H46.7935H46.7832ZM34.2841 20.6551C34.1926 25.8406 35.3847 29.3753 37.8327 31.1693C40.7636 33.3166 44.7656 32.4038 46.0238 32.0372C47.4632 28.9134 47.585 26.4194 46.385 24.6182C44.1546 21.2702 37.6139 20.6157 34.2841 20.6551Z" fill="url(#paint2_linear)"/>
<path d="M50.7893 61.7913C50.756 61.7913 50.7227 61.7894 50.6887 61.7864C50.1245 61.7331 49.702 61.2452 49.7305 60.6785C49.793 59.4324 49.8996 58.2506 50.0445 57.1305C50.4851 49.6346 50.2578 32.1784 39.2212 27.3492C38.6854 27.1147 38.4406 26.4904 38.6751 25.954C38.9091 25.4189 39.5351 25.1746 40.0703 25.4086C46.5741 28.2541 50.6657 35.3385 51.9003 45.8957C52.0112 46.8418 52.0942 47.7746 52.156 48.6831C55.0628 41.338 59.5096 38.7428 59.7744 38.5943C60.2835 38.3065 60.9296 38.4895 61.2169 38.998C61.5023 39.5071 61.3229 40.1513 60.8157 40.4386C60.7035 40.5041 53.8846 44.5963 52.173 57.216C52.0427 59.3748 51.8548 60.7512 51.8372 60.8773C51.7639 61.4058 51.3124 61.7913 50.7893 61.7913Z" fill="url(#paint3_linear)"/>
</g>
</g>
<defs>
<filter id="filter0_d" x="0" y="0" width="108" height="108" filterUnits="userSpaceOnUse" color-interpolation-filters="sRGB">
<feFlood flood-opacity="0" result="BackgroundImageFix"/>
<feColorMatrix in="SourceAlpha" type="matrix" values="0 0 0 0 0 0 0 0 0 0 0 0 0 0 0 0 0 0 127 0"/>
<feOffset dx="4" dy="4"/>
<feGaussianBlur stdDeviation="2"/>
<feColorMatrix type="matrix" values="0 0 0 0 0 0 0 0 0 0 0 0 0 0 0 0 0 0 0.25 0"/>
<feBlend mode="normal" in2="BackgroundImageFix" result="effect1_dropShadow"/>
<feBlend mode="normal" in="SourceGraphic" in2="effect1_dropShadow" result="shape"/>
</filter>
<linearGradient id="paint0_linear" x1="24.9918" y1="48.7836" x2="79.1814" y2="63.6405" gradientUnits="userSpaceOnUse">
<stop stop-color="#D8F69B"/>
<stop offset="0.477083" stop-color="#BFE9FD"/>
<stop offset="1" stop-color="#ECBACE"/>
</linearGradient>
<linearGradient id="paint1_linear" x1="53.8996" y1="32.7802" x2="67.0749" y2="34.4537" gradientUnits="userSpaceOnUse">
<stop stop-color="#D8F69B"/>
<stop offset="0.477083" stop-color="#BFE9FD"/>
<stop offset="1" stop-color="#ECBACE"/>
</linearGradient>
<linearGradient id="paint2_linear" x1="34.2717" y1="18.5414" x2="49.3502" y2="20.6932" gradientUnits="userSpaceOnUse">
<stop stop-color="#D8F69B"/>
<stop offset="0.477083" stop-color="#BFE9FD"/>
<stop offset="1" stop-color="#ECBACE"/>
</linearGradient>
<linearGradient id="paint3_linear" x1="41.3852" y1="25.3198" x2="61.6501" y2="27.0156" gradientUnits="userSpaceOnUse">
<stop stop-color="#D8F69B"/>
<stop offset="0.477083" stop-color="#BFE9FD"/>
<stop offset="1" stop-color="#ECBACE"/>
</linearGradient>
<clipPath id="clip0">
<rect width="65" height="65" fill="white" transform="translate(17 17)"/>
</clipPath>
</defs>
</svg>
