<svg width="108" height="108" viewBox="0 0 108 108" fill="none" xmlns="http://www.w3.org/2000/svg">
<g filter="url(#filter0_d)">
<rect width="100" height="100" rx="50" fill="black"/>
<path d="M49.4998 47.4761C47.2335 47.4761 45.0181 48.1481 43.1338 49.4072C41.2495 50.6662 39.7808 52.4558 38.9136 54.5496C38.0463 56.6433 37.8194 58.9472 38.2616 61.1699C38.7037 63.3927 39.795 65.4343 41.3975 67.0368C43 68.6393 45.0417 69.7306 47.2644 70.1727C49.4872 70.6148 51.7911 70.3879 53.8848 69.5206C55.9785 68.6533 57.7681 67.1847 59.0271 65.3003C60.2862 63.416 60.9582 61.2006 60.9582 58.9343C60.9547 55.8965 59.7464 52.984 57.5983 50.8359C55.4502 48.6878 52.5377 47.4795 49.4998 47.4761ZM49.4998 68.8693C47.5348 68.8693 45.614 68.2866 43.9802 67.195C42.3464 66.1033 41.073 64.5517 40.3211 62.7363C39.5691 60.9209 39.3724 58.9233 39.7557 56.9961C40.1391 55.0689 41.0853 53.2987 42.4747 51.9093C43.8641 50.5198 45.6344 49.5736 47.5616 49.1903C49.4888 48.8069 51.4863 49.0037 53.3017 49.7556C55.1171 50.5076 56.6687 51.781 57.7604 53.4148C58.8521 55.0486 59.4347 56.9694 59.4347 58.9343C59.4318 61.5683 58.3841 64.0936 56.5216 65.9562C54.6591 67.8187 52.1338 68.8663 49.4998 68.8693Z" fill="url(#paint0_linear)"/>
<path d="M49.4999 43.1285C46.3739 43.1285 43.318 44.0555 40.7188 45.7923C38.1196 47.529 36.0937 49.9975 34.8974 52.8856C33.7011 55.7737 33.3881 58.9517 33.998 62.0177C34.6078 65.0837 36.1132 67.9 38.3237 70.1105C40.5341 72.3209 43.3504 73.8263 46.4164 74.4361C49.4824 75.046 52.6604 74.733 55.5485 73.5367C58.4366 72.3404 60.9051 70.3146 62.6419 67.7153C64.3786 65.1161 65.3056 62.0602 65.3056 58.9342C65.3009 54.7437 63.6341 50.7262 60.671 47.7631C57.7079 44.8 53.6904 43.1333 49.4999 43.1285ZM62.9189 59.656H63.7547C63.5953 62.9206 62.3083 66.0288 60.1132 68.4505L59.5272 67.8745C59.456 67.8037 59.3715 67.7477 59.2786 67.7096C59.1858 67.6716 59.0863 67.6521 58.9859 67.6525C58.8855 67.6528 58.7862 67.673 58.6936 67.7117C58.601 67.7504 58.5169 67.807 58.4462 67.8783C58.3755 67.9495 58.3195 68.034 58.2814 68.1268C58.2433 68.2197 58.2239 68.3192 58.2242 68.4196C58.2246 68.52 58.2447 68.6193 58.2834 68.7119C58.3222 68.8045 58.3788 68.8886 58.45 68.9593L59.0359 69.5464C56.6153 71.7307 53.5175 73.0168 50.2617 73.1892V72.3535C50.2617 72.1515 50.1814 71.9577 50.0386 71.8149C49.8957 71.672 49.702 71.5918 49.4999 71.5918C49.2979 71.5918 49.1042 71.672 48.9613 71.8149C48.8185 71.9577 48.7382 72.1515 48.7382 72.3535V73.1892C45.4824 73.0173 42.3845 71.7316 39.9637 69.5476L40.5498 68.9617C40.6214 68.8912 40.6784 68.8072 40.7175 68.7145C40.7565 68.6218 40.7768 68.5224 40.7773 68.4218C40.7777 68.3213 40.7582 68.2216 40.7199 68.1286C40.6816 68.0357 40.6253 67.9512 40.5542 67.8801C40.4831 67.809 40.3986 67.7527 40.3056 67.7144C40.2126 67.6761 40.113 67.6566 40.0124 67.657C39.9119 67.6574 39.8124 67.6777 39.7197 67.7168C39.6271 67.7558 39.5431 67.8128 39.4726 67.8845L38.8865 68.4505C36.6914 66.0288 35.4043 62.9206 35.2448 59.656H36.081C36.283 59.656 36.4768 59.5758 36.6196 59.4329C36.7625 59.2901 36.8427 59.0963 36.8427 58.8943C36.8427 58.6923 36.7625 58.4986 36.6196 58.3557C36.4768 58.2129 36.283 58.1326 36.081 58.1326H35.2451C35.4292 54.8855 36.7135 51.7978 38.8867 49.3781L39.4727 49.974C39.6148 50.1185 39.8085 50.2007 40.0112 50.2025C40.1618 50.2033 40.3092 50.1592 40.4346 50.076C40.5601 49.9927 40.6579 49.874 40.7157 49.735C40.7734 49.5959 40.7885 49.4428 40.759 49.2952C40.7295 49.1476 40.6567 49.0121 40.5499 48.9059L39.9639 48.3207C42.3846 46.1367 45.4824 44.851 48.7382 44.679V45.5149C48.7382 45.7169 48.8185 45.9106 48.9613 46.0535C49.1042 46.1963 49.2979 46.2766 49.4999 46.2766C49.702 46.2766 49.8957 46.1963 50.0386 46.0535C50.1814 45.9106 50.2617 45.7169 50.2617 45.5149V44.679C53.5176 44.851 56.6155 46.1367 59.0363 48.3208L58.4503 48.9067C58.3786 48.9772 58.3216 49.0612 58.2825 49.1539C58.2435 49.2465 58.2232 49.346 58.2228 49.4466C58.2224 49.5471 58.2419 49.6467 58.2801 49.7397C58.3184 49.8327 58.3748 49.9172 58.4459 49.9883C58.517 50.0594 58.6014 50.1157 58.6944 50.154C58.7874 50.1923 58.887 50.2118 58.9876 50.2114C59.0881 50.211 59.1876 50.1906 59.2803 50.1516C59.3729 50.1126 59.4569 50.0556 59.5275 49.9839L60.1135 49.3781C62.2866 51.7978 63.571 54.8855 63.7551 58.1326H62.9189C62.7169 58.1326 62.5231 58.2129 62.3803 58.3557C62.2374 58.4986 62.1572 58.6923 62.1572 58.8943C62.1572 59.0963 62.2374 59.2901 62.3803 59.4329C62.5231 59.5758 62.7169 59.656 62.9189 59.656Z" fill="url(#paint1_linear)"/>
<path d="M49.5 54.8195C49.9372 54.8198 50.3565 54.9937 50.6656 55.3029C50.9748 55.612 51.1486 56.0312 51.149 56.4685C51.149 56.6705 51.2293 56.8642 51.3721 57.0071C51.515 57.1499 51.7087 57.2302 51.9107 57.2302C52.1127 57.2302 52.3065 57.1499 52.4493 57.0071C52.5922 56.8642 52.6724 56.6705 52.6724 56.4685C52.6713 55.76 52.4335 55.0722 51.9967 54.5144C51.5599 53.9566 50.9493 53.5607 50.2617 53.3897V52.7339C50.2617 52.5319 50.1815 52.3381 50.0386 52.1953C49.8958 52.0524 49.702 51.9722 49.5 51.9722C49.298 51.9722 49.1042 52.0524 48.9614 52.1953C48.8185 52.3381 48.7383 52.5319 48.7383 52.7339V53.3897C47.986 53.5757 47.3277 54.0306 46.8878 54.6686C46.448 55.3066 46.2568 56.0836 46.3506 56.8529C46.4443 57.6222 46.8164 58.3305 47.3966 58.8443C47.9768 59.358 48.725 59.6416 49.5 59.6414C49.9352 59.6424 50.3523 59.8154 50.6605 60.1226C50.9686 60.4299 51.1428 60.8466 51.145 61.2818C51.1472 61.717 50.9772 62.1353 50.6721 62.4457C50.3671 62.7561 49.9517 62.9332 49.5165 62.9385C49.5109 62.9385 49.5056 62.9376 49.5 62.9376C49.4944 62.9376 49.4891 62.9384 49.4835 62.9385C49.0493 62.9338 48.6344 62.7582 48.3289 62.4497C48.0233 62.1412 47.8516 61.7246 47.851 61.2904C47.851 61.0884 47.7708 60.8946 47.6279 60.7518C47.4851 60.6089 47.2913 60.5287 47.0893 60.5287C46.8873 60.5287 46.6935 60.6089 46.5507 60.7518C46.4078 60.8946 46.3276 61.0884 46.3276 61.2904C46.3285 61.999 46.5663 62.6869 47.0031 63.2448C47.4399 63.8028 48.0506 64.1987 48.7383 64.3697V65.1353C48.7383 65.3373 48.8185 65.5311 48.9614 65.6739C49.1042 65.8168 49.298 65.897 49.5 65.897C49.702 65.897 49.8958 65.8168 50.0386 65.6739C50.1815 65.5311 50.2617 65.3373 50.2617 65.1353V64.3697C51.0141 64.1837 51.6723 63.7288 52.1122 63.0908C52.5521 62.4527 52.7432 61.6758 52.6495 60.9065C52.5557 60.1372 52.1836 59.4289 51.6034 58.9151C51.0232 58.4014 50.275 58.1178 49.5 58.118C49.2823 58.1199 49.0663 58.0786 48.8645 57.9966C48.6628 57.9146 48.4793 57.7935 48.3247 57.6402C48.17 57.4869 48.0472 57.3044 47.9635 57.1034C47.8797 56.9024 47.8365 56.6868 47.8365 56.469C47.8365 56.2513 47.8797 56.0357 47.9635 55.8347C48.0472 55.6337 48.17 55.4512 48.3247 55.2979C48.4793 55.1446 48.6628 55.0235 48.8645 54.9415C49.0663 54.8594 49.2823 54.8182 49.5 54.8201V54.8195Z" fill="url(#paint2_linear)"/>
<path d="M74.6359 68.2662V57.2643C74.652 53.9575 74.0117 50.6803 72.7522 47.6227C71.4926 44.5651 69.6387 41.7879 67.298 39.452L67.2853 39.4331C66.4227 38.5728 65.3928 37.8985 64.2593 37.4521C64.7263 36.9819 65.0438 36.3841 65.1718 35.7338C65.2998 35.0836 65.2325 34.41 64.9785 33.7979C64.7245 33.1858 64.2951 32.6625 63.7443 32.2939C63.1936 31.9253 62.5461 31.7279 61.8833 31.7265H58.6068L65.0101 20.5112C65.0645 20.416 65.0977 20.3101 65.1072 20.2008C65.1166 20.0915 65.1023 19.9814 65.065 19.8782C65.0278 19.775 64.9686 19.6812 64.8915 19.6031C64.8144 19.525 64.7213 19.4647 64.6185 19.4262C60.1754 17.7564 55.252 17.9132 50.9242 19.8625L50.1267 20.2246C47.9874 21.1962 45.6634 21.694 43.3138 21.6838C40.9642 21.6735 38.6446 21.1555 36.5139 20.1653L34.9705 19.4489C34.8258 19.3817 34.6636 19.3617 34.5069 19.3917C34.3502 19.4216 34.2069 19.5 34.0971 19.6158C33.9874 19.7304 33.9167 19.8767 33.8951 20.0339C33.8736 20.1911 33.9023 20.351 33.9771 20.4909L39.9451 31.7265H38.0135C37.3171 31.726 36.6378 31.9425 36.0702 32.3459C35.5026 32.7494 35.0747 33.3196 34.8462 33.9774C34.6176 34.6352 34.5997 35.3479 34.7949 36.0164C34.9902 36.6849 35.3888 37.2759 35.9355 37.7073C32.8578 39.0226 30.2233 41.1952 28.3459 43.9661C25.7233 47.843 24.3625 52.4411 24.3625 57.2631V68.2509C24.3537 69.8902 24.2346 71.5271 24.006 73.1504C23.874 74.0928 23.9456 75.0526 24.216 75.9649C24.4863 76.8773 24.9492 77.7211 25.5733 78.4395C26.1974 79.1578 26.9682 79.734 27.8339 80.1292C28.6995 80.5244 29.6398 80.7294 30.5914 80.7304H30.5934L68.409 80.7195C69.3614 80.7213 70.303 80.518 71.1699 80.1236C72.0368 79.7292 72.8087 79.1529 73.4331 78.4338C74.0575 77.7146 74.5199 76.8695 74.7888 75.9559C75.0576 75.0422 75.1267 74.0814 74.9914 73.1386C74.7639 71.5243 74.6452 69.8964 74.6359 68.2662ZM36.3793 21.7672C38.6553 22.7406 41.1091 23.2293 43.5843 23.2021C46.0595 23.1749 48.502 22.6324 50.756 21.6092L51.5534 21.2491C55.2294 19.5922 59.3861 19.344 63.2331 20.5516L56.8528 31.7265H51.9103L54.2122 27.0445C54.3014 26.8631 54.3149 26.6538 54.2498 26.4625C54.1847 26.2711 54.0462 26.1135 53.8648 26.0243C53.6835 25.9351 53.4741 25.9215 53.2828 25.9867C53.0915 26.0518 52.9339 26.1903 52.8446 26.3716L50.213 31.7265H47.2029L46.223 29.0059C46.1515 28.8204 46.0102 28.6702 45.8295 28.5874C45.6487 28.5046 45.4427 28.4958 45.2555 28.5628C45.0683 28.6299 44.9147 28.7675 44.8276 28.9462C44.7405 29.125 44.7267 29.3307 44.7892 29.5194L45.5841 31.7265H41.67L36.3793 21.7672ZM38.0135 33.25H61.8833C62.3715 33.25 62.8398 33.4439 63.185 33.7891C63.5302 34.1343 63.7242 34.6026 63.7242 35.0908C63.7242 35.579 63.5302 36.0472 63.185 36.3924C62.8398 36.7377 62.3715 36.9316 61.8833 36.9316H38.0135C37.5253 36.9316 37.057 36.7377 36.7118 36.3924C36.3666 36.0472 36.1727 35.579 36.1727 35.0908C36.1727 34.6026 36.3666 34.1343 36.7118 33.7891C37.057 33.4439 37.5253 33.25 38.0135 33.25ZM72.2685 77.4359C71.7872 77.9884 71.1931 78.4314 70.5263 78.735C69.8594 79.0386 69.1352 79.1959 68.4025 79.1961L30.5931 79.207H30.5915C29.8564 79.209 29.1294 79.0525 28.4602 78.7481C27.791 78.4438 27.1952 77.9988 26.7135 77.4435C26.2318 76.8881 25.8754 76.2355 25.6687 75.53C25.462 74.8245 25.4098 74.0827 25.5156 73.3552C25.7533 71.664 25.877 69.9587 25.8859 68.2509V57.2631C25.8859 52.7465 27.1563 48.4487 29.6078 44.8243C31.6907 41.7324 34.7995 39.4764 38.3848 38.455L62.2195 38.4331L62.8423 38.5909C64.1181 38.9195 65.2829 39.583 66.2161 40.5128L66.235 40.5311C68.4287 42.7283 70.1658 45.338 71.3462 48.2097C72.5266 51.0814 73.1269 54.1583 73.1125 57.2631V68.2662C73.1218 69.965 73.2452 71.6612 73.4818 73.3435C73.5834 74.0727 73.5277 74.8152 73.3184 75.5211C73.1091 76.227 72.7511 76.8799 72.2685 77.4359Z" fill="url(#paint3_linear)"/>
<path d="M34.1666 45.8711C34.2888 45.6994 34.4146 45.5283 34.5405 45.3611C34.6021 45.2814 34.6473 45.1903 34.6735 45.093C34.6997 44.9957 34.7063 44.8942 34.6929 44.7944C34.6796 44.6946 34.6466 44.5983 34.5959 44.5113C34.5451 44.4243 34.4776 44.3483 34.3973 44.2875C34.3169 44.2268 34.2253 44.1826 34.1278 44.1575C34.0302 44.1324 33.9286 44.1268 33.829 44.1413C33.7293 44.1557 33.6334 44.1897 33.547 44.2414C33.4605 44.2931 33.3852 44.3614 33.3253 44.4425C33.1904 44.6208 33.0558 44.8044 32.9252 44.9884C32.8081 45.153 32.7612 45.3574 32.7948 45.5566C32.8284 45.7558 32.9398 45.9335 33.1044 46.0506C33.2691 46.1677 33.4735 46.2146 33.6727 46.1809C33.8719 46.1473 34.0495 46.0359 34.1666 45.8713V45.8711Z" fill="url(#paint4_linear)"/>
<path d="M32.0461 47.7915C31.8621 47.7022 31.6505 47.6885 31.4566 47.7534C31.2626 47.8182 31.1018 47.9565 31.0085 48.1385C29.3932 51.4394 28.5532 55.0656 28.5527 58.7406V64.7267C28.5527 64.9287 28.633 65.1224 28.7758 65.2653C28.9187 65.4081 29.1124 65.4884 29.3145 65.4884C29.5165 65.4884 29.7102 65.4081 29.8531 65.2653C29.9959 65.1224 30.0762 64.9287 30.0762 64.7267V58.7364C30.0786 55.2957 30.867 51.901 32.3813 48.8114C32.4264 48.7225 32.4536 48.6255 32.4612 48.5261C32.4688 48.4266 32.4567 48.3266 32.4256 48.2319C32.3944 48.1371 32.3449 48.0494 32.2797 47.9738C32.2146 47.8983 32.1352 47.8363 32.0461 47.7915Z" fill="url(#paint5_linear)"/>
</g>
<defs>
<filter id="filter0_d" x="0" y="0" width="108" height="108" filterUnits="userSpaceOnUse" color-interpolation-filters="sRGB">
<feFlood flood-opacity="0" result="BackgroundImageFix"/>
<feColorMatrix in="SourceAlpha" type="matrix" values="0 0 0 0 0 0 0 0 0 0 0 0 0 0 0 0 0 0 127 0"/>
<feOffset dx="4" dy="4"/>
<feGaussianBlur stdDeviation="2"/>
<feColorMatrix type="matrix" values="0 0 0 0 0 0 0 0 0 0 0 0 0 0 0 0 0 0 0.25 0"/>
<feBlend mode="normal" in2="BackgroundImageFix" result="effect1_dropShadow"/>
<feBlend mode="normal" in="SourceGraphic" in2="effect1_dropShadow" result="shape"/>
</filter>
<linearGradient id="paint0_linear" x1="40.859" y1="47.4761" x2="61.0379" y2="50.1812" gradientUnits="userSpaceOnUse">
<stop stop-color="#D8F69B"/>
<stop offset="0.477083" stop-color="#BFE9FD"/>
<stop offset="1" stop-color="#ECBACE"/>
</linearGradient>
<linearGradient id="paint1_linear" x1="37.5809" y1="43.1285" x2="65.4155" y2="46.8599" gradientUnits="userSpaceOnUse">
<stop stop-color="#D8F69B"/>
<stop offset="0.477083" stop-color="#BFE9FD"/>
<stop offset="1" stop-color="#ECBACE"/>
</linearGradient>
<linearGradient id="paint2_linear" x1="47.1075" y1="51.9722" x2="52.7741" y2="52.3183" gradientUnits="userSpaceOnUse">
<stop stop-color="#D8F69B"/>
<stop offset="0.477083" stop-color="#BFE9FD"/>
<stop offset="1" stop-color="#ECBACE"/>
</linearGradient>
<linearGradient id="paint3_linear" x1="30.2265" y1="18.2781" x2="75.5003" y2="23.2457" gradientUnits="userSpaceOnUse">
<stop stop-color="#D8F69B"/>
<stop offset="0.477083" stop-color="#BFE9FD"/>
<stop offset="1" stop-color="#ECBACE"/>
</linearGradient>
<linearGradient id="paint4_linear" x1="33.0197" y1="44.1334" x2="34.7103" y2="44.3443" gradientUnits="userSpaceOnUse">
<stop stop-color="#D8F69B"/>
<stop offset="0.477083" stop-color="#BFE9FD"/>
<stop offset="1" stop-color="#ECBACE"/>
</linearGradient>
<linearGradient id="paint5_linear" x1="29.0336" y1="47.713" x2="32.5359" y2="47.8163" gradientUnits="userSpaceOnUse">
<stop stop-color="#D8F69B"/>
<stop offset="0.477083" stop-color="#BFE9FD"/>
<stop offset="1" stop-color="#ECBACE"/>
</linearGradient>
</defs>
</svg>
