<svg width="108" height="108" viewBox="0 0 108 108" fill="none" xmlns="http://www.w3.org/2000/svg">
<g filter="url(#filter0_d)">
<rect width="100" height="100" rx="50" fill="black"/>
<g clip-path="url(#clip0)">
<path d="M49.5115 17.0068C36.5075 17.0049 24.7547 24.7563 19.6363 36.7107L19.2312 36.845L19.3883 37.3161C12.6492 53.9372 20.66 72.8744 37.2811 79.6135C41.1631 81.1875 45.3129 81.9955 49.5019 81.9932C67.4474 81.9959 81.9973 67.4504 82 49.5049C82.0027 31.5594 67.4571 17.0093 49.5115 17.0068ZM74.9988 65.8826L73.3303 64.2151V60.3311C73.3322 60.1635 73.2951 59.9978 73.222 59.8469L68.9979 51.4106V47.3338C68.9979 46.9718 68.8171 46.6336 68.5159 46.4326L65.2666 44.2664C65.0119 44.0964 64.6971 44.0421 64.4001 44.117L60.4207 45.1113L53.7369 42.2432L52.8173 35.8009L55.3659 33.2534H60.8366L62.6779 36.0207C62.8442 36.2696 63.1062 36.4387 63.4014 36.4876L69.9001 37.5707C70.0742 37.5999 70.2526 37.5857 70.42 37.5295L76.4052 35.5344C81.4253 45.168 80.8884 56.7547 74.9988 65.8826ZM70.5315 27.6797L68.7704 28.8538L63.8607 27.8714L60.6753 26.8111C60.4803 26.7449 60.2705 26.7365 60.0709 26.7872L56.0439 27.7934L54.2784 27.2053L55.5868 24.5885H59.2499C59.4179 24.5887 59.5836 24.5498 59.734 24.4748L63.4816 22.601C66.0624 23.9481 68.4365 25.6584 70.5315 27.6797ZM37.6386 21.5916L40.2381 23.3245C40.3659 23.4096 40.5102 23.4664 40.6616 23.4913L45.9103 24.3665L45.398 25.8991L42.6632 26.8121C42.4183 26.8937 42.2104 27.0599 42.0772 27.2811L38.9665 32.4649L33.9702 35.4629L26.605 36.5146C26.0712 36.59 25.6742 37.0467 25.6736 37.5858V40.8351C25.6736 41.1224 25.7878 41.3978 25.9909 41.6009L27.8398 43.4498V45.3105L23.334 42.306L21.6996 37.4028C24.8092 30.2976 30.5087 24.6438 37.6386 21.5916ZM34.555 57.1034L29.6594 56.1232L27.8398 52.4937V49.9484L31.8754 45.9128L33.369 48.901C33.5525 49.2682 33.9279 49.5001 34.3384 49.5H41.3071L44.2413 54.3902C44.437 54.7161 44.7893 54.9154 45.1695 54.9155H48.1805L47.4224 58.714L43.3217 62.8147C43.1182 63.0176 43.0037 63.293 43.0033 63.5804V66.2882L39.1041 69.2126C38.8314 69.4171 38.6708 69.7381 38.6708 70.0791V73.9912L37.3235 73.545L35.4215 68.788V58.1649C35.4217 57.6501 35.0594 57.2063 34.555 57.1034ZM31.2992 73.7536C21.087 66.0921 16.7682 52.8544 20.4974 40.6445L21.3974 43.3436C21.4733 43.572 21.623 43.7687 21.8231 43.9025L27.2224 47.5017L25.9909 48.7342C25.7878 48.9373 25.6736 49.2127 25.6736 49.5V52.7493C25.6734 52.9173 25.7123 53.0831 25.7873 53.2335L27.9535 57.5659C28.1035 57.8651 28.3834 58.0782 28.7117 58.1432L33.2607 59.0519V68.9959C33.2606 69.1335 33.2867 69.27 33.3376 69.3978L35.5038 74.8133C35.6224 75.1091 35.8653 75.3378 36.1678 75.4383L39.4171 76.5214C39.5257 76.5582 39.6394 76.5772 39.754 76.5777C40.3521 76.5777 40.8371 76.0927 40.8371 75.4946V70.6206L44.7362 67.6962C45.0089 67.4916 45.1695 67.1706 45.1695 66.8297V64.0288L49.1846 60.0137C49.3355 59.8625 49.4384 59.6698 49.4803 59.4603L50.5634 54.0447C50.6806 53.4581 50.3002 52.8876 49.7135 52.7703C49.6438 52.7564 49.573 52.7493 49.5019 52.7493H45.7825L42.8484 47.8591C42.6526 47.5332 42.3003 47.3339 41.9202 47.3338H35.0078L33.147 43.6003C32.9912 43.2887 32.6949 43.0709 32.3509 43.0154C32.007 42.956 31.656 43.0695 31.4119 43.3187L30.006 44.7192V43.0014C30.006 42.7141 29.8917 42.4387 29.6886 42.2356L27.8398 40.3867V38.5249L34.4922 37.575C34.6351 37.5543 34.7725 37.5053 34.8962 37.4309L40.3118 34.1816C40.4637 34.0904 40.5909 33.9631 40.6822 33.8112L43.7257 28.739L46.5949 27.7815C46.9188 27.6753 47.1731 27.4211 47.2794 27.097L48.3625 23.8477C48.5501 23.2797 48.2419 22.6671 47.6739 22.4794C47.6215 22.4621 47.5678 22.4488 47.5133 22.4396L41.2443 21.3944L40.1428 20.6601C46.9587 18.4416 54.3408 18.7162 60.9731 21.4345L58.9943 22.4223H54.9175C54.5049 22.42 54.1271 22.6523 53.9427 23.0213L51.7765 27.3537C51.5096 27.889 51.7272 28.5394 52.2625 28.8063C52.3081 28.829 52.3552 28.8485 52.4036 28.8646L55.6529 29.9477C55.8479 30.014 56.0577 30.0223 56.2573 29.9716L60.2843 28.9654L63.2346 29.9477C63.2769 29.9629 63.3203 29.9746 63.3646 29.9824L68.7802 31.0655C69.0618 31.1229 69.3547 31.0652 69.5936 30.9052L72.0587 29.2611C73.2719 30.6124 74.3622 32.0691 75.3167 33.6141L69.9878 35.3904L64.2181 34.4286L62.3118 31.5692C62.112 31.2695 61.7762 31.0889 61.4161 31.0872H54.9175C54.6302 31.0872 54.3548 31.2014 54.1517 31.4045L50.9024 34.6538C50.6611 34.895 50.5475 35.2357 50.5959 35.5734L51.679 43.1552C51.7335 43.5301 51.9799 43.8492 52.3288 43.9967L59.9106 47.2461C60.1278 47.3402 60.3701 47.3595 60.5994 47.3013L64.4672 46.3341L66.8316 47.9133V51.6662C66.8298 51.8338 66.8668 51.9995 66.94 52.1504L71.1641 60.5867V64.6635C71.1641 64.9508 71.2783 65.2262 71.4814 65.4293L73.7473 67.6962C63.6984 81.0906 44.6936 83.8027 31.2992 73.7536Z" fill="url(#paint0_linear)"/>
</g>
</g>
<defs>
<filter id="filter0_d" x="0" y="0" width="108" height="108" filterUnits="userSpaceOnUse" color-interpolation-filters="sRGB">
<feFlood flood-opacity="0" result="BackgroundImageFix"/>
<feColorMatrix in="SourceAlpha" type="matrix" values="0 0 0 0 0 0 0 0 0 0 0 0 0 0 0 0 0 0 127 0"/>
<feOffset dx="4" dy="4"/>
<feGaussianBlur stdDeviation="2"/>
<feColorMatrix type="matrix" values="0 0 0 0 0 0 0 0 0 0 0 0 0 0 0 0 0 0 0.25 0"/>
<feBlend mode="normal" in2="BackgroundImageFix" result="effect1_dropShadow"/>
<feBlend mode="normal" in="SourceGraphic" in2="effect1_dropShadow" result="shape"/>
</filter>
<linearGradient id="paint0_linear" x1="24.9918" y1="17.0068" x2="82.2257" y2="24.6809" gradientUnits="userSpaceOnUse">
<stop stop-color="#D8F69B"/>
<stop offset="0.477083" stop-color="#BFE9FD"/>
<stop offset="1" stop-color="#ECBACE"/>
</linearGradient>
<clipPath id="clip0">
<rect width="65" height="65" fill="white" transform="translate(17 17)"/>
</clipPath>
</defs>
</svg>
