<svg width="108" height="108" viewBox="0 0 108 108" fill="none" xmlns="http://www.w3.org/2000/svg">
<g filter="url(#filter0_d)">
<rect width="100" height="100" rx="50" fill="black"/>
<g clip-path="url(#clip0)">
<path d="M78.9714 65.1872L76.6684 61.5527C76.2929 60.9601 75.5089 60.7845 74.9163 61.1594C74.3242 61.5348 74.1486 62.3194 74.5235 62.9115L76.827 66.5465C77.2367 67.1932 77.1385 68.0526 76.5935 68.5907C76.2498 68.9299 75.7772 69.0995 75.2957 69.0563C74.8146 69.0127 74.3797 68.7618 74.1015 68.3665L64.1739 54.2474L60.2378 44.8578V43.7544C60.2378 43.0537 59.6695 42.4849 58.9683 42.4849C58.2676 42.4849 57.6987 43.0537 57.6987 43.7544V60.6725H43.4016V45.1291C43.4016 45.1251 43.4016 45.1207 43.4016 45.1162V43.7544C43.4016 43.0537 42.8333 42.4849 42.1321 42.4849C41.4309 42.4849 40.8625 43.0537 40.8625 43.7544V44.8707L36.9324 54.2474L27.0043 68.3665C26.7266 68.7613 26.2912 69.0127 25.8101 69.0558C25.3296 69.099 24.856 68.9299 24.5123 68.5902C23.9673 68.0526 23.8691 67.1932 24.2788 66.546L33.1015 52.6228C33.1566 52.5365 33.2002 52.4448 33.2329 52.3481L37.0058 41.1281C38.3349 37.1752 42.0304 34.5196 46.2005 34.5196H54.9053C59.0759 34.5196 62.7709 37.1752 64.1 41.1281L67.8734 52.3481C67.9056 52.4448 67.9497 52.5365 68.0043 52.6228L69.7281 55.3439C69.9701 55.7252 70.3812 55.934 70.8017 55.934C71.0343 55.934 71.2694 55.87 71.4801 55.7366C72.0722 55.3612 72.2483 54.5767 71.8729 53.9846L70.2309 51.3935L66.5066 40.3188C64.9807 35.7802 60.9827 32.5979 56.3102 32.0613C57.6918 30.6242 58.5443 28.6743 58.5443 26.528V24.8642C58.5443 20.458 54.9593 16.873 50.5527 16.873C46.1465 16.873 42.5615 20.458 42.5615 24.8642V26.528C42.5615 28.6743 43.4135 30.6242 44.7956 32.0613C40.1231 32.5979 36.1251 35.7802 34.5987 40.3188L30.8749 51.3935L22.1339 65.1872C21.0891 66.8356 21.3395 69.0271 22.729 70.3978C23.3598 71.0201 24.1617 71.4184 25.0187 71.5513C25.0182 71.5528 25.0177 71.5538 25.0177 71.5547C24.3467 73.3494 24.3725 75.3162 25.0901 77.0926C26.2793 80.0368 29.1298 81.8732 32.1791 81.8732C32.8357 81.8732 33.5022 81.7879 34.1628 81.6098L50.5527 77.1982L66.9425 81.6098C67.6031 81.7879 68.2691 81.8732 68.9262 81.8732C71.9746 81.8727 74.8255 80.0363 76.0147 77.0926C76.7323 75.3162 76.7581 73.3494 76.0876 71.5547C76.0871 71.5538 76.0867 71.5528 76.0862 71.5513C76.9431 71.4184 77.745 71.0201 78.3763 70.3978C79.7658 69.0276 80.0163 66.8361 78.9714 65.1872ZM45.1006 24.8642C45.1006 21.858 47.5464 19.4121 50.5532 19.4121C53.5594 19.4121 56.0052 21.858 56.0052 24.8642V26.528C56.0052 29.5347 53.5594 31.9805 50.5532 31.9805C47.5464 31.9805 45.1006 29.5342 45.1006 26.528V24.8642ZM61.8847 55.3558C61.9199 55.4401 61.9646 55.5209 62.0171 55.5953L69.1776 65.7784L60.2378 61.2199V51.4262L61.8847 55.3558ZM39.0887 55.5953C39.1412 55.5209 39.1854 55.4401 39.2206 55.3558L40.8625 51.4391V61.2229L31.9277 65.7784L39.0887 55.5953ZM73.6611 76.1419C72.6956 78.5312 70.0911 79.828 67.6026 79.1586L54.759 75.7011C55.788 74.8897 56.4292 73.6351 56.4292 72.2654C56.4292 72.2178 56.4267 72.1707 56.4252 72.1236L64.3618 73.9981C64.46 74.0214 64.5582 74.0323 64.6549 74.0323C65.2302 74.0323 65.7514 73.6386 65.8892 73.0544C66.0504 72.372 65.6279 71.6881 64.9455 71.527L55.4513 69.2845C55.3759 69.2666 55.3 69.2572 55.2246 69.2532C55.0838 69.1059 54.933 68.9656 54.7699 68.8367C53.7156 68.0025 52.3603 67.7015 51.0515 68.01L36.1603 71.527C35.4779 71.6881 35.0554 72.372 35.2166 73.0544C35.3778 73.7368 36.0611 74.1593 36.744 73.9981L51.6347 70.4811C52.1842 70.3512 52.7525 70.4776 53.1944 70.8277C53.6367 71.1778 53.8901 71.702 53.8901 72.2654C53.8901 73.0931 53.3317 73.8211 52.5328 74.0363L50.2725 74.6448C50.2457 74.6507 50.2199 74.6582 50.1941 74.6656L33.5032 79.1581C31.0147 79.828 28.4102 78.5312 27.4447 76.1419C26.4469 73.6708 27.4843 70.8942 29.8583 69.6837L42.5521 63.2115H58.5537L71.2475 69.6837C73.6215 70.8947 74.6594 73.6708 73.6611 76.1419Z" fill="url(#paint0_linear)"/>
<path d="M72.161 59.2477C72.4089 59.4962 72.7342 59.6207 73.0601 59.6207C73.3844 59.6207 73.7087 59.4972 73.9567 59.2497L74.0038 59.2031C74.5002 58.7077 74.5012 57.9038 74.0058 57.4074C73.5108 56.911 72.707 56.91 72.2106 57.4049L72.1635 57.452C71.667 57.9475 71.6661 58.7513 72.161 59.2477Z" fill="url(#paint1_linear)"/>
</g>
</g>
<defs>
<filter id="filter0_d" x="0" y="0" width="108" height="108" filterUnits="userSpaceOnUse" color-interpolation-filters="sRGB">
<feFlood flood-opacity="0" result="BackgroundImageFix"/>
<feColorMatrix in="SourceAlpha" type="matrix" values="0 0 0 0 0 0 0 0 0 0 0 0 0 0 0 0 0 0 127 0"/>
<feOffset dx="4" dy="4"/>
<feGaussianBlur stdDeviation="2"/>
<feColorMatrix type="matrix" values="0 0 0 0 0 0 0 0 0 0 0 0 0 0 0 0 0 0 0.25 0"/>
<feBlend mode="normal" in2="BackgroundImageFix" result="effect1_dropShadow"/>
<feBlend mode="normal" in="SourceGraphic" in2="effect1_dropShadow" result="shape"/>
</filter>
<linearGradient id="paint0_linear" x1="28.6374" y1="16.8731" x2="79.998" y2="23.0298" gradientUnits="userSpaceOnUse">
<stop stop-color="#D8F69B"/>
<stop offset="0.477083" stop-color="#BFE9FD"/>
<stop offset="1" stop-color="#ECBACE"/>
</linearGradient>
<linearGradient id="paint1_linear" x1="72.1084" y1="57.0344" x2="74.3857" y2="57.3397" gradientUnits="userSpaceOnUse">
<stop stop-color="#D8F69B"/>
<stop offset="0.477083" stop-color="#BFE9FD"/>
<stop offset="1" stop-color="#ECBACE"/>
</linearGradient>
<clipPath id="clip0">
<rect width="64.8732" height="65" fill="white" transform="translate(18 17)"/>
</clipPath>
</defs>
</svg>
