<svg width="108" height="108" viewBox="0 0 108 108" fill="none" xmlns="http://www.w3.org/2000/svg">
<g filter="url(#filter0_d)">
<rect width="100" height="100" rx="50" fill="black"/>
<path d="M79.1713 31.3542C77.4259 29.6088 75.0185 28.5255 72.3704 28.5255H61.9583V25.2153C61.9583 23.831 61.4167 22.5671 60.5139 21.6644L60.4537 21.6042C59.4907 20.6412 58.2269 20.0995 56.8426 20.0995H42.2176C40.7731 20.0995 39.5093 20.7014 38.6065 21.6042C37.6435 22.5671 37.1019 23.831 37.1019 25.2153V28.5255H26.6296C23.9815 28.5255 21.5741 29.6088 19.8287 31.3542C18.0833 33.0995 17 35.507 17 38.1551V69.2708C17 71.919 18.0833 74.3264 19.8287 76.0718C21.5741 77.8171 23.9815 78.9005 26.6296 78.9005H72.3704C75.0185 78.9005 77.4259 77.8171 79.1713 76.0718C80.9167 74.3264 82 71.919 82 69.2708V38.1551C82 35.507 80.9167 33.0995 79.1713 31.3542ZM39.3889 25.2153H39.4491C39.4491 24.4329 39.75 23.7708 40.2315 23.2894C40.713 22.8079 41.4352 22.507 42.1574 22.507H56.7222C57.5046 22.507 58.1667 22.8079 58.6481 23.2894L58.7083 23.3495C59.1898 23.831 59.4907 24.4931 59.4907 25.2153V28.5255H57.0833V27.4421C57.0833 26.5995 56.7222 25.8171 56.0602 25.2153L56 25.1551C55.3982 24.6134 54.5556 24.2523 53.5926 24.2523H45.287C44.3843 24.2523 43.5417 24.6134 42.8796 25.1551C42.2176 25.757 41.7963 26.5394 41.7963 27.4421V28.5255H39.3889V25.2153ZM54.8565 27.5023V28.5255H54.7963H44.2037V27.4421C44.2037 27.2616 44.3241 27.081 44.4444 26.9607C44.625 26.7801 44.9259 26.6597 45.287 26.6597H53.713C54.0139 26.6597 54.3148 26.7801 54.5556 26.9607L54.6157 27.0208C54.7361 27.1412 54.8565 27.3218 54.8565 27.5023ZM77.5463 74.3866C76.2222 75.7107 74.4167 76.4931 72.4306 76.4931H26.6296C24.6435 76.4931 22.838 75.6505 21.5139 74.3866C20.1898 73.0625 19.4074 71.257 19.4074 69.2708V38.1551C19.4074 36.169 20.25 34.3634 21.5139 33.0394C22.838 31.7153 24.6435 30.9329 26.6296 30.9329H38.3056H43.0602H56H60.7546H72.3704C74.3565 30.9329 76.162 31.7755 77.4861 33.0394C78.8102 34.3634 79.5926 36.169 79.5926 38.1551V69.2708H79.6528C79.6528 71.257 78.8102 73.0625 77.5463 74.3866Z" fill="url(#paint0_linear)"/>
<path d="M66.1712 58.0764L63.7036 55.6088C63.4027 55.3078 62.9212 55.1875 62.4999 55.3078L57.9861 56.6921L52.6296 51.0347L64.3657 44.5347C64.4861 44.4745 64.6064 44.4143 64.7268 44.294C65.2083 43.8125 65.2083 43.0903 64.7268 42.6088L61.537 39.2384C61.2361 38.9375 60.7546 38.8171 60.3333 38.9375L45.5879 43.4514L40.5925 38.1551L40.5324 38.0347C39.6296 37.1319 38.4259 36.7106 37.2222 36.7106C36.0185 36.7106 34.8749 37.1319 33.912 38.0347L33.7916 38.1551L33.6712 38.2754C32.8286 39.1782 32.3472 40.3819 32.3472 41.5856C32.3472 42.7893 32.7685 43.993 33.6712 44.8958C33.7314 44.956 33.7314 44.956 33.7916 45.0162L39.0879 50.0116L34.6342 64.7569C34.5138 65.1782 34.574 65.6597 34.9351 65.9606L38.1851 69.2106C38.2453 69.2708 38.3657 69.331 38.4259 69.3912C39.0277 69.6921 39.7499 69.5115 40.0509 68.9097L46.6111 57.0532L52.2685 62.4097L50.9444 66.8634C50.824 67.2847 50.8842 67.7662 51.2453 68.0671L53.7731 70.5949C53.8333 70.6551 53.9536 70.7152 54.0138 70.7754C54.6157 71.0764 55.3379 70.8958 55.6388 70.294L58.8286 64.5764V64.5162L59.2499 63.6134L60.0925 63.1921C60.1527 63.1921 60.1527 63.1319 60.2129 63.1319L65.8101 60.0023C65.9305 59.9421 66.0509 59.8819 66.1712 59.7615C66.6527 59.2801 66.6527 58.5578 66.1712 58.0764ZM59.1296 61.0856L57.9259 61.6875C57.6851 61.8078 57.5046 61.9884 57.3842 62.2291L56.7824 63.4328L54.3749 67.7662L53.4722 66.8634L54.8564 62.3495C54.9768 61.868 54.8564 61.3865 54.4953 61.0856L47.2129 54.2245C46.7314 53.743 45.949 53.8032 45.5277 54.2847C45.4675 54.3449 45.4074 54.4653 45.3472 54.5856L38.787 66.2615L37.162 64.6365L41.6759 49.8912C41.7962 49.4097 41.6759 48.9282 41.3148 48.6273L35.537 43.1504L35.4768 43.0903C35.0555 42.669 34.8148 42.0671 34.8148 41.5254C34.8148 40.9236 35.0555 40.3217 35.4768 39.8403C35.4768 39.8403 35.4768 39.8403 35.537 39.7801C35.5972 39.7199 35.537 39.7801 35.5972 39.7199C36.0786 39.2986 36.6805 39.0579 37.2824 39.0579C37.8842 39.0579 38.4259 39.2384 38.8472 39.6597L38.9074 39.7199L44.4444 45.5579C44.7453 45.919 45.2268 46.0393 45.6481 45.8588L60.4536 41.4051L62.0786 43.0301L50.2222 49.6504C49.6203 49.9514 49.4398 50.6736 49.7407 51.2754C49.8009 51.3356 49.8611 51.456 49.9212 51.5162L56.8425 58.8588C57.1435 59.2199 57.6249 59.3403 58.0462 59.1597L62.5601 57.7754L63.4629 58.6782L59.1296 61.0856Z" fill="url(#paint1_linear)"/>
</g>
<defs>
<filter id="filter0_d" x="0" y="0" width="108" height="108" filterUnits="userSpaceOnUse" color-interpolation-filters="sRGB">
<feFlood flood-opacity="0" result="BackgroundImageFix"/>
<feColorMatrix in="SourceAlpha" type="matrix" values="0 0 0 0 0 0 0 0 0 0 0 0 0 0 0 0 0 0 127 0"/>
<feOffset dx="4" dy="4"/>
<feGaussianBlur stdDeviation="2"/>
<feColorMatrix type="matrix" values="0 0 0 0 0 0 0 0 0 0 0 0 0 0 0 0 0 0 0.25 0"/>
<feBlend mode="normal" in2="BackgroundImageFix" result="effect1_dropShadow"/>
<feBlend mode="normal" in="SourceGraphic" in2="effect1_dropShadow" result="shape"/>
</filter>
<linearGradient id="paint0_linear" x1="24.9918" y1="20.0996" x2="82.0027" y2="28.5479" gradientUnits="userSpaceOnUse">
<stop stop-color="#D8F69B"/>
<stop offset="0.477083" stop-color="#BFE9FD"/>
<stop offset="1" stop-color="#ECBACE"/>
</linearGradient>
<linearGradient id="paint1_linear" x1="36.5503" y1="36.7106" x2="66.6519" y2="40.7433" gradientUnits="userSpaceOnUse">
<stop stop-color="#D8F69B"/>
<stop offset="0.477083" stop-color="#BFE9FD"/>
<stop offset="1" stop-color="#ECBACE"/>
</linearGradient>
</defs>
</svg>
