<svg width="108" height="108" viewBox="0 0 108 108" fill="none" xmlns="http://www.w3.org/2000/svg">
<g filter="url(#filter0_d)">
<rect width="100" height="100" rx="50" fill="black"/>
<g clip-path="url(#clip0)">
<path d="M77.0416 54.314H75.5995V52.729C75.5995 51.5664 75.2344 50.4884 74.6146 49.6019C75.7521 46.8768 76.2004 44.3067 76.0596 41.3619C75.864 37.2734 74.3108 33.4278 71.6862 30.5337C68.9912 27.5618 65.4617 25.9252 61.7479 25.9252C56.0802 25.9252 51.4404 29.4364 49.5204 31.1427C47.6556 29.4202 43.1452 25.9252 37.2519 25.9252C33.5384 25.9252 30.0089 27.5618 27.3138 30.5337C24.689 33.428 23.1359 37.2735 22.9403 41.3622C22.7997 44.3071 23.2477 46.8773 24.3847 49.6027C23.7653 50.4891 23.4005 51.5668 23.4005 52.729V54.314H21.9584C19.2243 54.314 17 56.5456 17 59.2885C17 62.0313 19.2243 64.2629 21.9584 64.2629H23.4005V65.8479C23.4005 68.8587 25.8418 71.3081 28.8427 71.3081C30.1628 71.3081 31.3743 70.8338 32.3175 70.0466C33.2108 71.8398 35.0578 73.0748 37.1881 73.0748C40.189 73.0748 42.6303 70.6254 42.6303 67.6145V67.3152C46.144 69.8206 48.7828 71.6005 48.8136 71.6212C49.028 71.7657 49.2754 71.8379 49.5229 71.8379C49.7703 71.8379 50.0177 71.7657 50.232 71.6213C50.2625 71.6007 52.8789 69.8367 56.3693 67.3471V67.6147C56.3693 70.6255 58.8106 73.0749 61.8115 73.0749C63.9417 73.0749 65.7888 71.8399 66.6821 70.0467C67.6255 70.834 68.837 71.3082 70.1569 71.3082C73.1578 71.3082 75.5991 68.8588 75.5991 65.848V64.263H77.0412C79.7753 64.263 81.9996 62.0315 81.9996 59.2886C82 56.5456 79.7757 54.314 77.0416 54.314ZM25.4765 41.4834C25.8199 34.3047 31.1023 28.4644 37.2519 28.4644C43.7445 28.4644 48.5049 33.7056 48.5508 33.757C48.7869 34.0231 49.1247 34.1773 49.4804 34.183C49.8382 34.1902 50.1787 34.0441 50.4233 33.7857C50.4737 33.7325 55.5332 28.4644 61.7479 28.4644C67.8974 28.4644 73.1799 34.3047 73.5233 41.4834C73.6316 43.7481 73.3363 45.7601 72.5775 47.8406C71.8479 47.4755 71.0264 47.2689 70.1573 47.2689C68.8372 47.2689 67.6257 47.7432 66.6825 48.5304C65.7892 46.7372 63.9422 45.5022 61.8119 45.5022C58.811 45.5022 56.3697 47.9517 56.3697 50.9625V54.314H42.6304V50.9625C42.6304 47.9517 40.1891 45.5022 37.1882 45.5022C35.0581 45.5022 33.2109 46.7372 32.3177 48.5304C31.3743 47.7432 30.1628 47.2689 28.8428 47.2689C27.9734 47.2689 27.1517 47.4756 26.422 47.8408C25.6634 45.7602 25.3684 43.7481 25.4765 41.4834ZM42.6304 56.8531H56.3697V61.7237H42.6304V56.8531ZM21.9584 61.7238C20.6244 61.7238 19.5391 60.6312 19.5391 59.2885C19.5391 57.9457 20.6244 56.8531 21.9584 56.8531H23.4005V61.7237H21.9584V61.7238ZM28.8427 68.7691C27.2419 68.7691 25.9395 67.4586 25.9395 65.8479V52.729C25.9395 51.1183 27.2419 49.8078 28.8427 49.8078C30.4434 49.8078 31.7459 51.1183 31.7459 52.729V65.8479C31.7459 67.4585 30.4436 68.7691 28.8427 68.7691ZM40.0914 67.6144C40.0914 69.2252 38.789 70.5356 37.1882 70.5356C35.5875 70.5356 34.285 69.2252 34.285 67.6144V50.9626C34.285 49.3518 35.5875 48.0414 37.1882 48.0414C38.789 48.0414 40.0914 49.3518 40.0914 50.9626V67.6144ZM49.5231 69.033C48.329 68.2172 45.7498 66.4393 42.7307 64.2627H56.3127C53.2964 66.4393 50.7172 68.2173 49.5231 69.033ZM64.7151 67.6144C64.7151 69.2252 63.4127 70.5356 61.8119 70.5356C60.2112 70.5356 58.9087 69.2252 58.9087 67.6144V50.9626C58.9087 49.3518 60.2112 48.0414 61.8119 48.0414C63.4127 48.0414 64.7151 49.3518 64.7151 50.9626V67.6144ZM73.0605 65.8479C73.0605 67.4586 71.7581 68.7691 70.1573 68.7691C68.5566 68.7691 67.2541 67.4586 67.2541 65.8479V52.729C67.2541 51.1183 68.5566 49.8078 70.1573 49.8078C71.7581 49.8078 73.0605 51.1183 73.0605 52.729V65.8479ZM77.0416 61.7238H75.5995V56.8531H77.0416C78.3756 56.8531 79.4609 57.9455 79.4609 59.2885C79.4609 60.6312 78.3756 61.7238 77.0416 61.7238Z" fill="url(#paint0_linear)"/>
</g>
</g>
<defs>
<filter id="filter0_d" x="0" y="0" width="108" height="108" filterUnits="userSpaceOnUse" color-interpolation-filters="sRGB">
<feFlood flood-opacity="0" result="BackgroundImageFix"/>
<feColorMatrix in="SourceAlpha" type="matrix" values="0 0 0 0 0 0 0 0 0 0 0 0 0 0 0 0 0 0 127 0"/>
<feOffset dx="4" dy="4"/>
<feGaussianBlur stdDeviation="2"/>
<feColorMatrix type="matrix" values="0 0 0 0 0 0 0 0 0 0 0 0 0 0 0 0 0 0 0.25 0"/>
<feBlend mode="normal" in2="BackgroundImageFix" result="effect1_dropShadow"/>
<feBlend mode="normal" in="SourceGraphic" in2="effect1_dropShadow" result="shape"/>
</filter>
<linearGradient id="paint0_linear" x1="24.9918" y1="25.9252" x2="81.3301" y2="36.3369" gradientUnits="userSpaceOnUse">
<stop stop-color="#D8F69B"/>
<stop offset="0.477083" stop-color="#BFE9FD"/>
<stop offset="1" stop-color="#ECBACE"/>
</linearGradient>
<clipPath id="clip0">
<rect width="65" height="65" fill="white" transform="translate(17 17)"/>
</clipPath>
</defs>
</svg>
